<svg width="24" height="25" viewBox="0 0 24 25" fill="none" xmlns="http://www.w3.org/2000/svg">
<mask id="mask0_3789_183" style="mask-type:alpha" maskUnits="userSpaceOnUse" x="0" y="0" width="24" height="25">
<rect y="0.406982" width="24" height="24" fill="#D9D9D9"/>
</mask>
<g mask="url(#mask0_3789_183)">
<path d="M16.1 13.707L14.65 12.257C14.8 11.4737 14.575 10.7404 13.975 10.057C13.375 9.3737 12.6 9.10703 11.65 9.25703L10.2 7.80703C10.4833 7.6737 10.7708 7.5737 11.0625 7.50703C11.3542 7.44036 11.6667 7.40703 12 7.40703C13.25 7.40703 14.3125 7.84453 15.1875 8.71953C16.0625 9.59453 16.5 10.657 16.5 11.907C16.5 12.2404 16.4667 12.5529 16.4 12.8445C16.3333 13.1362 16.2333 13.4237 16.1 13.707ZM19.3 16.857L17.85 15.457C18.4833 14.9737 19.0458 14.4445 19.5375 13.8695C20.0292 13.2945 20.45 12.6404 20.8 11.907C19.9667 10.2237 18.7708 8.8862 17.2125 7.89453C15.6542 6.90286 13.9167 6.40703 12 6.40703C11.5167 6.40703 11.0417 6.44036 10.575 6.50703C10.1083 6.5737 9.65 6.6737 9.2 6.80703L7.65 5.25703C8.33333 4.9737 9.03333 4.7612 9.75 4.61953C10.4667 4.47786 11.2167 4.40703 12 4.40703C14.5167 4.40703 16.7583 5.10286 18.725 6.49453C20.6917 7.8862 22.1167 9.69037 23 11.907C22.6167 12.8904 22.1125 13.8029 21.4875 14.6445C20.8625 15.4862 20.1333 16.2237 19.3 16.857ZM19.8 23.007L15.6 18.857C15.0167 19.0404 14.4292 19.1779 13.8375 19.2695C13.2458 19.3612 12.6333 19.407 12 19.407C9.48333 19.407 7.24167 18.7112 5.275 17.3195C3.30833 15.9279 1.88333 14.1237 1 11.907C1.35 11.0237 1.79167 10.2029 2.325 9.44453C2.85833 8.6862 3.46667 8.00703 4.15 7.40703L1.4 4.60703L2.8 3.20703L21.2 21.607L19.8 23.007ZM5.55 8.80703C5.06667 9.24037 4.625 9.71537 4.225 10.232C3.825 10.7487 3.48333 11.307 3.2 11.907C4.03333 13.5904 5.22917 14.9279 6.7875 15.9195C8.34583 16.9112 10.0833 17.407 12 17.407C12.3333 17.407 12.6583 17.3862 12.975 17.3445C13.2917 17.3029 13.6167 17.257 13.95 17.207L13.05 16.257C12.8667 16.307 12.6917 16.3445 12.525 16.3695C12.3583 16.3945 12.1833 16.407 12 16.407C10.75 16.407 9.6875 15.9695 8.8125 15.0945C7.9375 14.2195 7.5 13.157 7.5 11.907C7.5 11.7237 7.5125 11.5487 7.5375 11.382C7.5625 11.2154 7.6 11.0404 7.65 10.857L5.55 8.80703Z" fill="#1C1B1F"/>
</g>
</svg>
