<?xml version="1.0" encoding="UTF-8"?>
<svg id="Capa_2" data-name="Capa 2" xmlns="http://www.w3.org/2000/svg" viewBox="0 0 116.28 116.28">
  <defs>
    <style>
      .cls-1 {
        fill: #e30304;
      }

      .cls-1, .cls-2 {
        stroke-width: 0px;
      }

      .cls-2 {
        fill: #1e1e1e;
      }
    </style>
  </defs>
  <g id="Grilla">
    <g>
      <path class="cls-1" d="m87.42,62.97c.03-1.28-.08-2.55-.2-3.82-.24-2.5-.56-5.02-.96-7.5-1.33-8.18-4.41-15.87-8.66-22.96-4.2-7-9.49-14.02-15.75-19.3-4.03-3.4-8.47-6.2-13.09-8.68-5.85.95-11.4,2.76-16.53,5.32,6.87,5.6,13.45,11.56,18.96,18.46,7.3,9.14,11.01,20.13,10.54,31.72.26.3.45.64.61,1,7.16,5.41,16.09,7.29,24.99,7.07,0-.43.08-.95.09-1.32Z"/>
      <path class="cls-2" d="m61.06,0c1.64,1.14,3.24,2.34,4.78,3.63,11.55,9.74,20.88,23.79,25.29,38.23,1.74,5.68,2.68,11.64,3.11,17.57.09,1.2.18,2.72.11,4.26,1.79-.25,3.55-.57,5.29-.95,5.75-1.27,11.33-3.43,16.64-6.01C115.57,26.2,91.37,1.49,61.06,0Z"/>
      <path class="cls-1" d="m42.94,80.36c.3,1.47,2.75,2.77,4.05,3.49,2.37,1.3,4.95,2.25,7.5,3.15,5.91,2.08,11.69,3.65,18.01,3.88,7.93.3,15.92-.83,23.72-2.13,4.64-.78,9.32-2.19,13.7-4.17,3.09-6.04,5.18-12.67,5.99-19.71-4.75,1.99-9.66,3.5-14.29,4.58-14.32,3.36-31.32,2.72-43.37-6.58-6.59,3.59-11.91,9.67-15.84,16.21.23.36.42.78.52,1.27Z"/>
      <path class="cls-2" d="m97.38,95.64c-9.05,1.52-18.36,2.73-27.55,2.1-7.03-.49-13.77-2.58-20.3-5.12-3.59-1.39-8.02-3.21-10.85-6.19-3.26,7.74-4.4,16.13-4.8,24.54,7.39,3.4,15.61,5.31,24.28,5.31,18.48,0,34.92-8.63,45.57-22.07-2.09.59-4.21,1.07-6.35,1.43Z"/>
      <path class="cls-2" d="m7.71,82.72c1.19-7.63,3.9-15.1,7.29-22.01,6.38-13.01,16.21-26.88,30.08-32.59-.15-.18-.27-.36-.42-.53-5.67-6.61-12.18-12.33-18.93-17.77C10.21,20.25,0,37.98,0,58.1c0,10.25,2.66,19.87,7.31,28.23.09-1.21.21-2.41.4-3.62Z"/>
      <path class="cls-1" d="m49.2,33.91c-.17.1-.35.2-.55.28-12.71,4.97-21.83,17.88-27.49,29.78-2.98,6.26-5.55,13.03-6.55,19.92-.61,4.21-.53,8.4-.13,12.57,3.67,4.18,7.92,7.85,12.64,10.84.65-9.09,2.28-18.08,6.36-26.28,4.72-9.48,11.76-19,21.24-24.22.51-8.23-1.45-15.99-5.51-22.88Z"/>
    </g>
  </g>
</svg>