<?xml version="1.0" encoding="UTF-8"?>
<svg id="Capa_2" data-name="Capa 2" xmlns="http://www.w3.org/2000/svg" viewBox="0 0 116.28 115.53">
  <defs>
    <style>
      .cls-1 {
        fill: #e30304;
      }

      .cls-1, .cls-2 {
        stroke-width: 0px;
      }

      .cls-2 {
        fill: #1e1e1e;
      }
    </style>
  </defs>
  <g id="Grilla">
    <g>
      <path class="cls-2" d="m116.28,64.28c-.58-1.83-1.31-3.62-2.25-5.33-2.57-4.65-6.57-8.2-10.23-11.97-2.84-2.93-5.58-5.55-8.66-7.78-.73,2.04-1.15,4.22-1.16,6.52-.08,9.78,5.13,18.68,8.08,27.77,2.09,6.45,2.9,12.89,2.42,19.63,6.37-8.15,10.6-18.04,11.82-28.83Z"/>
      <path class="cls-2" d="m98.67,32.99c.98.68,1.94,1.39,2.85,2.16,3.71,2.45,7.19,5.33,10.38,8.71,1.25,1.32,2.59,2.7,3.92,4.15-1.35-7.85-4.31-15.15-8.51-21.58-3.38,1.55-6.36,3.79-8.64,6.56Z"/>
      <path class="cls-1" d="m1.34,70.61c-.45-1.52-.76-3.24-.95-4.99.24,1.69.57,3.35.95,4.99Z"/>
      <path class="cls-1" d="m86.61,27.15c1.78.61,3.53,1.3,5.25,2.07,1.78-2.94,3.94-5.87,6.87-7.56,1.21-.7,2.52-1.15,3.87-1.5-5.72-6.61-12.93-11.91-21.1-15.41,1.99,3.85,3.02,8.04,4.11,12.43.79,3.21,1.07,6.56,1.01,9.97Z"/>
      <path class="cls-1" d="m48.75,114.72c-.33-.06-.67-.11-1-.17.33.06.67.11,1,.17Z"/>
      <path class="cls-1" d="m44.93,113.96c-.05-.01-.1-.02-.15-.03.05.01.1.02.15.03Z"/>
      <path class="cls-1" d="m52.1,115.18c-.44-.05-.87-.1-1.3-.16.43.06.87.11,1.3.16Z"/>
      <path class="cls-1" d="m88.56,107.21c-8.79,5.28-19.09,8.32-30.12,8.32-.95,0-1.9-.04-2.83-.09-.09,0-.17,0-.26,0-.47-.03-.94-.07-1.41-.1-.61-.05-1.23-.1-1.84-.16-.43-.05-.87-.1-1.3-.16-.69-.09-1.37-.19-2.05-.3-.33-.06-.67-.11-1-.17-.95-.18-1.89-.37-2.82-.59-.05-.02-.1-.02-.15-.03-4.37-1.04-8.54-2.58-12.46-4.54.19.09,1.31-.56,1.53-.65.48-.2.97-.37,1.43-.59,1.97-.94,3.89-2,5.75-3.15,8.15-5.06,15.31-12.03,21.5-19.29,7.62-8.95,14.5-19.01,18.14-30.2.1-.31.2-.64.31-.95,2.22-5.64,3.83-11.45,4.6-17.39.17-.94.32-1.89.46-2.83.53.2,1.05.4,1.57.61.49.2.94.42,1.39.63-1.83,4.57-2.23,9.41-1.7,14.25.14,2.44.65,4.9,1.56,7.84,2.79,8.98,7.42,17.26,7.68,26.85.23,8.28-2.55,16.51-7.99,22.69Z"/>
      <path class="cls-1" d="m55.35,115.44c-.47-.02-.94-.07-1.41-.1.47.04.94.08,1.41.1Z"/>
      <path class="cls-1" d="m24.77,104.97c-2.84-1.98-5.5-4.21-7.94-6.65,3.57,3.78,6.76,6.36,7.94,6.65Z"/>
      <path class="cls-1" d="m62.58,1.47c1.06.97,2.04,2.03,2.87,3.2.97,1.35,1.68,2.83,2.23,4.37.49,1.37.84,2.79,1.13,4.22.41,2.06.69,4.12.84,6.22.02.29.31,3.91-.1,3.86,2.07.24,4.12.54,6.16.94,1.09.21,2.17.45,3.25.7-.06-1.01-.14-2.02-.26-3.03-.63-5.54-2.11-12.52-3.93-15.77-.89-1.6-3.75-5.2-3.75-5.2C71.01.96,64.63-.01,60.89,0c.12,0,.5.43.59.5.37.31.74.63,1.1.96Z"/>
      <path class="cls-2" d="m50.8,115.02c-.69-.09-1.37-.19-2.05-.3.68.11,1.36.21,2.05.3Z"/>
      <path class="cls-2" d="m55.63,115.46s-.01,0-.02-.01c-.09,0-.17,0-.26,0,.09,0,.19.02.28.02Z"/>
      <path class="cls-2" d="m53.94,115.34c-.62-.05-1.23-.1-1.84-.16.61.07,1.22.12,1.84.16Z"/>
      <path class="cls-2" d="m47.75,114.55c-.95-.18-1.89-.37-2.82-.59.93.22,1.87.41,2.82.59Z"/>
      <path class="cls-2" d="m62.54,22.81c-10.32-.42-20.8.71-30.83,2.5-1.89.34-3.76.72-5.63,1.12-5.91,1.28-11.76,2.86-17.54,4.6-.86.26-1.71.52-2.56.79C14.05,15.99,29.48,3.86,47.57.51,49.2.3,52.18,0,52.18,0c.42.2.83.42,1.22.66,4.92,2.94,7.46,8.6,8.46,14.07.12.61.83,8.09.68,8.08Z"/>
      <path class="cls-2" d="m61.52,29.7c-2.76,10.13-10.55,17.03-19.78,21.87-6.98,3.66-14.36,6.38-21.55,9.55-3.17,1.39-6.31,2.88-9.35,4.57-3.73,1.76-8.65,6.36-8.9,6.59-.23-.52-.43-1.08-.6-1.68-.39-1.64-.71-3.3-.95-4.99-.31-2.75-.38-5.57-.38-7.79,0-5.68.65-11.15,2.19-16.33,2.67-1.68,5.59-3.04,8.64-4.17,3.98-1.21,8.08-2.16,12.06-3.09.34-.07.67-.15,1.01-.24,1.87-.44,3.75-.86,5.65-1.25,6.21-1.1,12.44-2.13,18.69-2.74,4.43-.36,8.86-.48,13.28-.33Z"/>
      <path class="cls-1" d="m78.98,32.1c-.45,7.78-2.41,15.27-5.63,22.73-7.44,17.21-22.17,34.96-37.68,44.78-3.55,2.25-7.14,4.08-10.7,5.39-.06,0-.13-.02-.2-.03-2.84-1.98-5.5-4.21-7.94-6.65-4.79-5.07-10.25-12.29-12.39-19,.29-.32.57-.64.87-.95,4.45-4.52,10.03-7.44,15.72-10.14.31-.15.63-.3.95-.45,7.05-2.44,13.61-4.88,20.29-8.27,5.29-2.67,10.82-5.84,14.96-10.19,5.09-4.71,8.88-10.63,10.82-17.17.23-.69.41-1.36.53-1.98,3.51.39,6.98,1.03,10.38,1.92Z"/>
    </g>
  </g>
</svg>