<?xml version="1.0" encoding="UTF-8"?>
<svg id="Capa_2" data-name="Capa 2" xmlns="http://www.w3.org/2000/svg" viewBox="0 0 93.87 123">
  <defs>
    <style>
      .cls-1 {
        fill: #e30304;
      }

      .cls-1, .cls-2 {
        stroke-width: 0px;
      }

      .cls-2 {
        fill: #1e1e1e;
      }
    </style>
  </defs>
  <g id="Grilla">
    <g>
      <path class="cls-1" d="m93.87,37.5c.02,35.17-15.85,44.97-15.85,44.97-3.14,1.47-6.73,2.36-10.04,3.01-6.75,1.31-13.36,1.93-19.97,1.98-3.9.03-7.81-.14-11.75-.49-4.64-.41-8.66-1.63-12.87-3.56C13.88,74.05,3.85,61.99.89,48.63,0,44.61-.32,40.29.38,36.22c.9-5.28,5.05-10.04,10.13-11.87.32-.11.63-.22.96-.31,4.72-1.33,10-.76,14.01,1.75.66.41.61.37,1.2.88.4.35.79.71,1.15,1.11.34.37.5.57.88,1.16.27.41.63,1.07.76,1.35.91,2.05,1.06,4.54.58,6.95-.55,2.79-1.88,5.24-4.21,6.94-2.36,1.72-5.11,2.64-7.95,3.21-1.33.27-2.03,1.93-1.67,3.12.42,1.38,1.8,1.93,3.13,1.67,2.01-.4,3.98-1.03,5.84-1.89,1.1,3.07,5.43,4.78,8.21,5.79,3.27,1.19,6.91,2.23,10.42,2.35,3.03.1,6.2-.28,9.19-.8,3.2-.55,6.24-1.5,9.21-2.81,3.11-1.37,6.27-2.83,8.89-5.03,2.04-1.71,3.18-4.46,5.43-5.9.11-.08.5-.26.51-.28.14-.05.27-.1.41-.14.37-.11.93-.23,1.18-.27.9-.16,2.14-.28,3.17-.4,1.27-.14,2.92-.14,4.23-.66.86-.02,1.65-.45,2.14-1.28.66-1.11.16-2.86-1.03-3.39-2.8-1.25-5.76-1.34-8.7-.58-.31.08-.62.18-.92.27.64-1.34,1.2-2.94.95-4.41.16-1.2-.85-2.41-1.96-2.66-1.42-.32-2.57.62-2.99,1.9-1.46,4.35-2.86,8.9-6.05,12.34-4.8,5.18-12.24,7.6-19.12,8.14-3.48.27-6.97.12-10.32-.91-2.4-.73-5.09-1.88-7.17-3.54,1.48-1.59,2.99-4.05,3.63-5.73,1.24-3.25,1.97-6.77,1.42-10.27-1.77-11.38-14.73-15.39-21.33-14.09-3.81.74-7.72,1.52-10.92,3.79,1.16-2.77,4.14-6.96,5.88-8.52C17.55,6,25.57,3.41,45.08.67c19.5-2.74,48.77,1.65,48.79,36.83Z"/>
      <path class="cls-2" d="m77.64,89.63l-.57,10.67c-1.3,24.48-10.64,22.01-24.57,22.53-.72.03-1.42.05-2.1.07-.05,0-.09,0-.14,0-21.39.64-24.38-1.95-25.03-19.94-.15-3.63-.6-7.95-1.04-12.51,1.65.61,3.35,1.12,5.1,1.5,4.3.92,8.75,1.19,13.13,1.47,2.02.12,4.03.22,6.06.27,2.38.06,4.76.06,7.14-.02,7.41-.24,15.12-1.13,22.01-4.05Z"/>
    </g>
  </g>
</svg>