<?xml version="1.0" encoding="UTF-8"?>
<svg id="Capa_2" data-name="Capa 2" xmlns="http://www.w3.org/2000/svg" viewBox="0 0 123.52 122.91">
  <defs>
    <style>
      .cls-1 {
        fill: #e30304;
      }

      .cls-1, .cls-2 {
        stroke-width: 0px;
      }

      .cls-2 {
        fill: #1e1e1e;
      }
    </style>
  </defs>
  <g id="Grilla">
    <g>
      <path class="cls-2" d="m3.5,68.93c4-.22,8.09-.21,12.05.48.97.17,1.92.38,2.88.61-.32-1.21-.73-2.39-1.2-3.53-2.28-5.49-6.03-10.66-10.75-14.32-1.78-1.38-3.77-2.5-5.81-3.49C-.14,58.42-.06,65.28.12,69.21c1.12-.12,2.25-.21,3.38-.27Z"/>
      <path class="cls-2" d="m34.21,22.52c3.52,7.47,9.43,13.53,15.07,19.43,5.8,6.06,11.94,12.11,18.9,16.83,5.77,3.91,13.38,7.57,20.55,6.81,3.01-.32,5.88-1.32,8.17-3.15.67-.53,1.28-1.11,1.85-1.71C60.14,53.25,45.9,0,45.9,0c0,0-11.37,5.04-13.69,6.06-.54,5.63-.45,11.26,2,16.46Z"/>
      <path class="cls-1" d="m49.56,74.39c7.73.89,15.41,2.04,23.12,3.11,7.73,1.07,15.53,1.91,23.35,1.79,6.96-.11,14.47-.81,20.63-4.32,1.57-.89,2.87-2.07,4.01-3.39-1.43-7.06-8.33-9.17-15.7-9.99-1.6,2.11-3.39,4.08-5.56,5.59-3.61,2.51-7.8,3.71-12.19,3.78-8.15.13-16.55-3.87-23.04-8.52-7.54-5.4-14.25-12.06-20.57-18.8-2.94-3.14-6.01-6.4-8.7-9.91-2.13-2.61-4.03-5.54-5.34-8.67-.53-1.16-.99-2.34-1.38-3.56-1.36-4.31-1.6-8.66-1.38-13.04L5,18.12c-1.81,9.28-2.98,17.39-3.74,24.35,2.81.44,5.26,2.39,7.55,3.92,2.77,1.85,5.35,3.99,7.57,6.48,4.41,4.95,7.32,11.13,8.51,17.63,8.1,1.95,16.4,2.93,24.67,3.88Z"/>
      <ellipse class="cls-2" cx="22.37" cy="106.33" rx="15.93" ry="16.57"/>
      <path class="cls-2" d="m104.2,94.85c.03.13.07.26.09.4.03.28.05.57.02.85-.07.64-.2.82-.49,1.38-.25.47-.76.79-1.28.97-.43.21-.89.31-1.39.28-.36-.02-.79-.18-1.16-.4-.02,0-.03.02-.05.03-.55.17-1.13.18-1.68-.02-.39-.14-.86-.43-1.11-.77-.29-.38-.54-.78-.79-1.19-1.17-.08-2.21-1.05-2.42-2.2-.14-.8-.39-1.58-.59-2.36-.14-.55-.23-1.1-.28-1.66-.03-.13-.06-.25-.1-.38-.08,0-.16-.01-.24-.01-8.8,0-15.93,7.42-15.93,16.57s7.13,16.57,15.93,16.57,15.93-7.42,15.93-16.57c0-4.46-1.7-8.5-4.46-11.48Z"/>
      <path class="cls-1" d="m106.23,93.1c-3.93.74-8.38,1.15-12.57.57.91,2.92,2.21,7.1,4.08,13.1,18.38,2.87,25.78-7.54,25.78-7.54l-6.4-9.17c-3.57,1.3-7.22,2.36-10.89,3.05Z"/>
      <polygon class="cls-2" points="6.44 83.51 18.02 104.68 28.66 104.68 36.06 85.6 6.44 83.51"/>
      <path class="cls-2" d="m120.98,82.68c-1.29,9.09-31.96,8.7-61.27,7.22-29.15-1.47-57.9-3.53-57.9-3.53l-.92-10.1-.05-1.49c4.38-.46,10.68-.13,18.23.54l2.29.21c18.62,1.81,41.37,5.78,47.65,7.32,9.14,2.25,51.96,3.21,51.96-6.74v6.58Z"/>
    </g>
  </g>
</svg>