<?xml version="1.0" encoding="UTF-8"?>
<svg id="Capa_2" data-name="Capa 2" xmlns="http://www.w3.org/2000/svg" viewBox="0 0 108.38 39.27">
  <defs>
    <style>
      .cls-1 {
        fill: #ce1d11;
        stroke-width: 0px;
      }
    </style>
  </defs>
  <g id="Capa_1-2" data-name="Capa 1">
    <g>
      <path class="cls-1" d="m0,23.7c.29-.47.27-1.02.38-1.53,1.05-4.76,6.02-9.98,12.65-10.06,5.81-.07,11.18,4.26,12.69,9.22.19.62.07.75-.55.72-1.35-.05-2.71-.03-4.06,0-.42,0-.63-.14-.84-.49-1.67-2.8-4.1-4.32-7.41-4.23-3.97.1-7.5,3.47-7.83,7.42-.37,4.48,2.55,8.29,6.96,9.04,3.29.56,6.38-.92,8.22-4,.25-.42.51-.59,1-.57,1.53.04,3.07.01,4.65.01-.11.75-.41,1.4-.7,2.04-2.38,5.31-7.72,8.27-13.62,7.57-5.6-.66-10.25-5.04-11.29-10.61-.05-.29.02-.63-.24-.88v-3.66Z"/>
      <path class="cls-1" d="m83.99,0c0,4.22-.02,8.43,0,12.65,0,.55-.11.75-.69.72-1.1-.05-2.21-.05-3.31,0-.59.03-.7-.19-.7-.73.02-3.97.01-7.93,0-11.9,0-.25-.03-.49-.05-.74,1.58,0,3.16,0,4.74,0Z"/>
      <path class="cls-1" d="m108.38,28.03c-4.3,0-8.61,0-12.91.01-.5,0-.7-.08-.68-.65.05-1.17.03-2.34,0-3.51,0-.36.07-.51.47-.51,4.3.02,8.61.01,12.91.01.07,0,.13.03.2.04v4.6Z"/>
      <path class="cls-1" d="m80.2,39.27c.45-.21.9-.21,1.35,0h-1.35Z"/>
      <path class="cls-1" d="m62.81,21.03c.58-.72,1.04-1.26,1.61-1.69,1.41-1.1,3.01-1.67,4.8-1.7.45,0,.63.14.62.63-.03,1.35-.04,2.71,0,4.06.01.51-.16.61-.62.56-1.02-.11-2.02-.06-2.98.39-1.87.9-3.02,2.34-3.13,4.45-.19,3.49-.06,6.99-.07,10.49,0,.64-.13.84-.8.81-1.28-.06-2.57-.03-3.86,0-.38,0-.5-.1-.5-.49.01-6.52.01-13.04,0-19.56,0-.39.12-.51.5-.5,1.31.02,2.62.02,3.93,0,.39,0,.52.12.5.51-.03.62,0,1.24,0,2.06Z"/>
      <path class="cls-1" d="m28.51,25.56c0-4.24,0-8.48-.01-12.73,0-.52.11-.7.66-.68,1.26.04,2.53.05,3.79,0,.57-.02.7.15.7.7-.02,8.12-.01,16.24-.02,24.37,0,.58.26,1.34-.12,1.67-.33.28-1.07.1-1.63.1-.9,0-1.81-.03-2.71.01-.53.03-.67-.13-.67-.66.02-4.26.01-8.53.01-12.79Z"/>
      <path class="cls-1" d="m104.97,5.84c-.11.12-.2.22-.3.31-3.9,3.91-7.81,7.81-11.71,11.73-.31.31-.47.26-.74-.02-.84-.88-1.71-1.74-2.58-2.58-.27-.26-.29-.4-.01-.68,3.93-3.91,7.85-7.84,11.76-11.77.26-.26.4-.23.63.01.88.9,1.78,1.79,2.67,2.68.09.09.17.2.27.31Z"/>
      <path class="cls-1" d="m91.6,27.77c-.26-6.76-6.63-11.56-13.22-9.96-4.61,1.12-7.88,5.2-8.16,10.18-.28,4.95,3.13,9.64,7.9,10.91.47.12.97.1,1.4.38h.68c.45-.11.9-.11,1.35,0h.54s.09-.11.14-.12c6.05-1.04,9.6-5.35,9.36-11.39Zm-4.97.54c-.11,2.78-2.15,5.8-5.66,5.71-3.1,0-5.64-2.59-5.62-5.73.02-3.22,2.51-5.63,5.82-5.64,2.92,0,5.58,2.66,5.46,5.66Z"/>
      <path class="cls-1" d="m54.66,25.87c0-1.01.01-2.03-.07-3.04-.18-2.11-1.17-3.62-3.22-4.42-2.57-1-5.21-1.27-7.91-.9-4,.56-5.89,2.92-6.22,6.51-.04.43.08.54.5.53,1.35-.03,2.71-.02,4.06,0,.37,0,.54-.06.62-.48.26-1.25,1.27-2.15,2.48-2.25.63-.05,1.26-.03,1.89,0,.47.02.93.17,1.36.38.77.36,1.12,1.04,1.02,2.01-.07.7-.57,1.25-1.35,1.4-1.66.33-3.33.61-4.98.94-1.22.24-2.42.57-3.46,1.28-2.33,1.58-2.97,4.09-2.3,7.18.62,2.85,3.03,4.12,6.15,4.05,2.25-.05,4.37-.6,6.3-2.08,0,.64.02,1.14,0,1.63-.02.4.13.5.51.49,1.31-.02,2.62-.03,3.93,0,.56.02.71-.15.71-.71-.02-4.17,0-8.35-.02-12.52Zm-5.87,6.44c-.52,2.65-4.12,3.45-5.7,2.74-1.02-.46-1.3-1.37-1.3-2.4,0-1.22.63-2.03,1.73-2.49,1.01-.41,2.1-.47,3.14-.77.75-.22,1.54-.33,2.31-.94-.02,1.39.05,2.62-.19,3.84Z"/>
    </g>
  </g>
</svg>