<?xml version="1.0" encoding="UTF-8"?>
<svg id="Capa_2" data-name="Capa 2" xmlns="http://www.w3.org/2000/svg" viewBox="0 0 88.59 57.45">
  <defs>
    <style>
      .cls-1 {
        fill: #f0bbb8;
      }

      .cls-1, .cls-2, .cls-3, .cls-4, .cls-5 {
        stroke-width: 0px;
      }

      .cls-2 {
        fill: #ce1c10;
      }

      .cls-3 {
        fill: #d23025;
      }

      .cls-4 {
        fill: #eba29e;
      }

      .cls-5 {
        fill: #d1281c;
      }
    </style>
  </defs>
  <g id="Capa_1-2" data-name="Capa 1">
    <g>
      <path class="cls-2" d="m5.26,14.66c.28-.32.53-.63.81-.92,1.85-1.92,3.83-3.7,6.09-5.13,1.44-.92,2.92-1.76,4.46-2.49,2.96-1.41,6.01-2.56,9.16-3.47,1.98-.57,3.98-1.02,6-1.42,1.11-.23,2.24-.36,3.37-.53,1.27-.2,2.55-.31,3.83-.43.83-.08,1.66-.1,2.48-.16,2.23-.16,4.47-.08,6.7-.06,1.31.01,2.63.16,3.94.26.69.05,1.38.15,2.08.18.58.03,1.15.13,1.73.22,1.07.16,2.15.32,3.22.51.84.15,1.67.36,2.5.55,2.19.5,4.34,1.13,6.46,1.88,2.49.88,4.9,1.93,7.23,3.18,1.44.78,2.84,1.63,4.16,2.59,2.41,1.75,4.6,3.74,6.37,6.17,1.06,1.46,1.95,2.99,2.62,4.67.38.95-.09,1.77-.85,2.1-.79.34-1.71.02-2.07-.85-.43-1.03-.86-2.05-1.42-3.02-.83-1.43-1.86-2.7-2.98-3.9-1.52-1.63-3.25-3.02-5.1-4.25-2.58-1.7-5.32-3.1-8.19-4.25-2.15-.85-4.33-1.57-6.56-2.17-1.52-.41-3.05-.78-4.6-1.06-1.31-.24-2.61-.47-3.93-.62-1.55-.18-3.09-.35-4.64-.45-.99-.07-1.98-.09-2.97-.14-.91-.05-1.81-.08-2.71-.06-1.42.03-2.84.07-4.26.15-1.12.06-2.23.16-3.34.3-1.14.14-2.27.31-3.41.48-1.69.27-3.37.59-5.03.99-1.6.39-3.18.84-4.74,1.36-1.87.62-3.71,1.35-5.49,2.19-1.29.61-2.56,1.27-3.79,2-1.55.93-3.02,1.97-4.4,3.14-.9.76-1.73,1.58-2.53,2.44-.04.04-.06.07-.17.03Z"/>
      <path class="cls-2" d="m82.25,43.9c-.54.68-1.21,1.23-1.84,1.82-1.26,1.18-2.63,2.21-4.07,3.14-1.87,1.22-3.84,2.25-5.88,3.14-1.9.83-3.82,1.59-5.8,2.2-1.09.33-2.17.72-3.28.98-1.17.28-2.34.56-3.52.79-.93.19-1.87.35-2.81.54-.9.18-1.83.24-2.74.36-.99.13-1.99.18-2.97.31-.85.11-1.71.06-2.56.14-2.17.2-4.34.09-6.51.06-.89-.01-1.79-.06-2.67-.14-1.04-.1-2.09-.15-3.13-.29-.84-.12-1.68-.2-2.52-.36-.79-.15-1.59-.2-2.37-.38-.81-.19-1.63-.3-2.43-.53-.68-.19-1.39-.31-2.08-.49-.6-.16-1.19-.37-1.8-.53-.8-.22-1.58-.5-2.37-.76-1.24-.41-2.45-.89-3.65-1.4-2.63-1.11-5.13-2.44-7.48-4.06-2.17-1.49-4.15-3.19-5.88-5.2-1.5-1.73-2.69-3.65-3.62-5.73-.49-1.11-.24-1.93.72-2.39.83-.4,1.73-.04,2.11.92.41,1.02.84,2.03,1.41,2.97.85,1.42,1.87,2.72,3.02,3.91,1.16,1.21,2.41,2.29,3.76,3.28,1.31.96,2.68,1.82,4.1,2.6,1.9,1.05,3.87,1.97,5.89,2.75,1.08.42,2.18.8,3.29,1.15.92.29,1.83.58,2.76.82.93.24,1.87.47,2.81.66.82.17,1.64.36,2.47.51.76.14,1.53.28,2.3.37.44.05.89.08,1.32.2.5.13,1.02.07,1.53.16.69.13,1.41.15,2.11.21,1.71.13,3.43.16,5.14.16,1.76,0,3.52.03,5.28-.09,1.04-.07,2.09-.16,3.13-.26.72-.07,1.45-.13,2.17-.26.8-.15,1.6-.24,2.4-.4.61-.12,1.24-.22,1.86-.33.74-.13,1.47-.3,2.2-.48.86-.21,1.72-.45,2.58-.69,1.46-.41,2.9-.89,4.32-1.43,1.86-.71,3.67-1.51,5.43-2.43,1.68-.88,3.31-1.85,4.82-3.02,1.05-.81,2.05-1.66,3.02-2.56.07-.03.08,0,.07.06Z"/>
      <path class="cls-2" d="m1.66,32.69c.1-.68.18-1.37.32-2.04.23-1.1.39-2.22.58-3.33.26-1.47.49-2.94.74-4.4.09-.52.42-.87.84-.91.62-.05.97.16,1.15.76.41,1.37.79,2.75,1.19,4.13.32,1.1.65,2.2.97,3.29.06.21.13.42.2.62.02.06-.03.17.07.18.1,0,.13-.08.15-.17.16-.56.34-1.11.5-1.66.32-1.11.65-2.22.96-3.33.28-.99.56-1.97.84-2.96.11-.38.29-.74.71-.84.41-.1.82-.04,1.11.34.13.17.2.35.23.56.2,1.29.45,2.58.65,3.87.18,1.15.38,2.29.54,3.45.12.9.3,1.79.47,2.67.03.14.05.26-.09.29-.33.07-.67.11-1,.16-.17.03-.19-.05-.21-.2-.21-1.56-.43-3.11-.66-4.67-.22-1.47-.44-2.94-.66-4.42-.01-.07,0-.15-.11-.15-.11,0-.1.07-.12.14-.34,1.13-.69,2.26-1.03,3.39-.33,1.11-.66,2.22-.99,3.33-.17.59-.34,1.18-.5,1.78-.07.26-.18.41-.48.36-.12-.02-.25,0-.37,0-.61,0-.6,0-.76-.56-.37-1.3-.75-2.6-1.12-3.89-.42-1.43-.83-2.87-1.26-4.3-.03-.09-.04-.25-.18-.24-.18.01-.08.17-.1.26-.26,1.49-.46,2.99-.67,4.49-.19,1.33-.43,2.65-.59,3.98-.05.42-.31.73-.59.77-.41.06-.83-.22-.74-.75Z"/>
      <path class="cls-2" d="m50.8,22.49c.34-.12.65-.23.96-.36.16-.07.24-.04.3.13.39,1.13.79,2.26,1.19,3.39.62,1.76,1.24,3.53,1.86,5.29.03.08.01.19.13.19.13,0,.1-.12.12-.19.95-2.77,1.9-5.54,2.85-8.31.05-.16.11-.34.26-.43.15-.09.28-.25.51-.14.26.12.47.24.47.57,0,.5-.24.94-.4,1.39-.72,2.06-1.49,4.1-2.2,6.16-.32.91-.65,1.83-1,2.73-.12.31-.32.55-.64.56-.28.01-.47-.2-.57-.48-.24-.66-.49-1.31-.73-1.97-.66-1.84-1.32-3.68-1.99-5.52-.37-1.01-.74-2.02-1.12-3.04Z"/>
      <path class="cls-2" d="m47.88,33.44c-1.07.01-1.95-.34-2.75-.94-.34-.26-.34-.34-.06-.65.5-.56.51-.56,1.13-.12.76.54,1.58.78,2.49.44.43-.16.78-.45.87-.93.12-.58-.2-.93-.67-1.2-.75-.43-1.61-.64-2.38-1.03-.48-.24-.93-.53-1.19-1.01-.47-.88-.2-1.91.7-2.52,1.15-.78,2.36-.7,3.59-.23.27.1.52.25.76.42.43.32.41.9-.04,1.14-.24.13-.43,0-.63-.11-.4-.22-.79-.44-1.23-.58-.65-.2-1.57.01-1.87.43-.32.45-.28.89.18,1.21.53.38,1.16.58,1.76.82.63.25,1.23.55,1.73,1.02.97.93.84,2.43-.36,3.25-.63.43-1.33.63-2.02.6Z"/>
      <path class="cls-2" d="m84.57,24.95c.76.11,1.65.22,2.37.84.28.24.33.6.13.87-.19.26-.47.29-.8.08-.65-.39-1.32-.69-2.12-.62-.67.06-1,.26-1.19.9-.08.29,0,.51.24.7.57.44,1.24.66,1.89.91.8.31,1.54.7,2.04,1.44.5.74.32,1.68-.17,2.26-.5.6-1.14.91-1.92,1.06-1.28.24-2.35-.18-3.35-.89-.25-.17-.3-.35-.08-.61.51-.57.51-.6,1.11-.15.6.45,1.24.63,1.97.58.67-.05,1.51-.63,1.41-1.37-.06-.41-.3-.63-.6-.82-.61-.4-1.31-.61-1.98-.88-.47-.19-.9-.45-1.29-.79-.86-.74-.71-2.05.11-2.75.6-.52,1.31-.76,2.23-.78Z"/>
      <path class="cls-2" d="m24.11,30.96c0,1.78,0,3.56,0,5.35,0,.26-.07.32-.33.32-.94,0-.94,0-.94-.94,0-3.29,0-6.59,0-9.88,0-.16,0-.31.05-.47.12-.32.37-.52.64-.47.35.06.57.32.57.67,0,1.81,0,3.61,0,5.42h0Z"/>
      <path class="cls-2" d="m71.19,31.01c0-1.77,0-3.54,0-5.31,0-.44.16-.69.48-.75.32-.06.6.11.71.43.05.15.06.31.06.47,0,3.46,0,6.93,0,10.39,0,.31-.07.39-.38.38-.88-.02-.88,0-.88-.9,0-1.57,0-3.14,0-4.72Z"/>
      <path class="cls-2" d="m33.63,29.34c0-1.25,0-2.5,0-3.76,0-.33.17-.53.45-.61.29-.08.55,0,.74.26.13.17.04.36.06.53,0,.08-.05.18.06.22.11.04.13-.07.18-.13.27-.36.54-.72.99-.9.54-.21,1.16.18,1.06.73-.07.39-.41.48-.69.62-.35.16-.68.33-.95.63-.5.56-.63,1.25-.64,1.96-.02,1.37-.01,2.75,0,4.13,0,.27-.03.41-.35.37-.29-.04-.67.08-.85-.06-.19-.16-.06-.55-.06-.84,0-1.04,0-2.09,0-3.13Z"/>
      <path class="cls-2" d="m61.37,29.35c0,1.24,0,2.48,0,3.72,0,.24-.05.33-.3.3-.3-.03-.7.1-.89-.06-.21-.16-.06-.57-.06-.87,0-2.23,0-4.47,0-6.7,0-.17.02-.32.13-.48.18-.25.42-.39.69-.28.26.1.44.32.44.65,0,1.24,0,2.48,0,3.72Z"/>
      <path class="cls-2" d="m24.03,23.04c0,.27-.27.53-.54.52-.28-.01-.5-.26-.5-.56,0-.26.24-.54.48-.55.26,0,.56.31.56.58Z"/>
      <path class="cls-2" d="m60.24,23.12c0-.3.18-.52.47-.53.3-.01.58.23.59.52,0,.2-.31.5-.53.52-.22.02-.52-.28-.53-.51Z"/>
      <path class="cls-2" d="m71.3,23.13c0-.31.2-.53.5-.54.28,0,.55.24.57.5.01.18-.32.52-.52.54-.22.02-.54-.28-.54-.5Z"/>
      <path class="cls-3" d="m82.25,43.9s-.05-.04-.07-.06c.21-.23.43-.45.64-.68.03.02.05.05.08.07-.21.22-.37.49-.64.67Z"/>
      <path class="cls-1" d="m83.47,42.56c-.14.17-.16.31-.36.31.07-.13.14-.23.36-.31Z"/>
      <path class="cls-5" d="m4.86,15.15c.08-.1.15-.2.26-.35.03.24-.11.29-.2.37-.03.02-.05.02-.07-.01Z"/>
      <path class="cls-4" d="m4.86,15.15s.05,0,.07.01c-.06.1-.09.23-.27.28.04-.14.09-.23.2-.29Z"/>
      <path class="cls-2" d="m69.71,29.47v-.66c0-1,0-1.99,0-2.99,0-.48-.26-.84-.61-.86-.4-.03-.56.14-.65.74,0,.06.02.13-.07.14-.13.02-.22-.04-.32-.12-1.05-.84-2.21-1.05-3.42-.43-1.46.75-2.03,2.09-2.16,3.64-.08,1.01.17,1.96.67,2.83.64,1.12,1.63,1.72,2.91,1.74.76.01,1.47-.28,1.99-.88.07-.07.12-.16.24-.14.13.03.08.13.08.21q.04.68.73.68c.09,0,.17-.01.26,0,.27.05.35-.05.35-.33-.02-1.19,0-2.38,0-3.58Zm-1.25-.48c-.02.99-.1,1.77-.54,2.47-.52.83-1.33.97-2.21.87-.75-.09-1.24-.58-1.51-1.23-.54-1.29-.56-2.59.08-3.86.49-.98,1.31-1.27,2.26-1.15,1,.12,1.52.8,1.75,1.71.12.45.19.91.16,1.2Z"/>
      <path class="cls-2" d="m43.29,26.17c-1.49-1.86-4.18-1.61-5.48.26-.72,1.04-.94,2.18-.81,3.45.27,2.49,2.57,4.27,5.13,3.39.77-.26.77-.27.5-1.04-.06-.19-.13-.21-.31-.16-.42.11-.85.23-1.28.25-1.47.05-2.46-.91-2.7-2.36-.04-.23.05-.29.28-.29.84.01,1.67,0,2.51,0,.84,0,1.67,0,2.51,0,.35,0,.59-.21.6-.54.05-1.11-.27-2.1-.96-2.97Zm-.66,2.48c-.66-.01-1.32,0-1.99,0s-1.35,0-2.02,0c-.08,0-.26.08-.23-.12.15-.83.37-1.63,1.09-2.15.85-.61,2.11-.51,2.84.55.3.44.47.93.55,1.46.03.23-.04.27-.25.27Z"/>
      <path class="cls-2" d="m21.67,27.87c-.38-1.64-1.84-3.23-3.93-2.92-1.09.16-1.88.75-2.49,1.62-.62.9-.8,1.91-.74,2.98.06,1.01.35,1.94,1.04,2.69,1.12,1.2,2.49,1.54,4.06,1.06.8-.24.81-.25.56-1.03,0-.01,0-.02-.01-.03-.05-.14-.08-.2-.28-.16-.66.15-1.3.36-2,.2-1.18-.27-1.92-1.35-1.97-2.33-.01-.21.05-.27.26-.27.84.01,1.67,0,2.51,0,.8,0,1.6,0,2.4,0,.5,0,.73-.23.74-.73,0-.37-.07-.72-.15-1.08Zm-1.54.78c-.66-.02-1.33,0-1.99,0-.65,0-1.3,0-1.95,0-.22,0-.31-.03-.25-.28.19-.77.4-1.52,1.09-2,1-.69,2.34-.43,3.02.85.19.35.29.73.36,1.11.04.22,0,.33-.27.32Z"/>
      <path class="cls-2" d="m32,26.88c-.93-1.84-3.05-2.53-4.76-1.55-1.07.62-1.65,1.59-1.89,2.79-.35,1.73,0,3.28,1.3,4.5,1.41,1.32,3.42,1.19,4.73-.23.81-.88,1.14-1.97,1.15-3.37.02-.61-.16-1.4-.53-2.14Zm-1.44,4.58c-.81,1.2-2.73,1.22-3.46-.21-.63-1.23-.68-2.49-.17-3.77.36-.9,1.08-1.52,2.14-1.43.81.07,1.58.7,1.88,1.62.16.49.24,1,.23,1.52-.03.81-.16,1.58-.63,2.27Z"/>
      <path class="cls-2" d="m80.49,27.43c-.51-1.55-2.24-2.89-4.08-2.35-1.14.33-1.9,1.05-2.42,2.06-.49.96-.54,2-.37,3.05.15.9.53,1.7,1.19,2.3,1.28,1.17,2.76,1.3,4.33.61.1-.05.28-.06.21-.23-.11-.28-.12-.59-.32-.83,0,0-.06.03-.09.03-.27.07-.54.15-.81.2-.45.08-.91.12-1.35-.02-1.1-.36-1.71-1.11-1.84-2.27-.03-.28.05-.31.28-.31.82,0,1.65,0,2.47,0h0c.81,0,1.62,0,2.43,0,.48,0,.65-.2.67-.7.03-.55-.12-1.05-.29-1.56Zm-1.31,1.33c-.67-.02-1.35,0-2.02,0-.66,0-1.32,0-1.99,0-.24,0-.3-.07-.25-.3.19-.82.39-1.66,1.18-2.12,1.09-.65,2.4-.29,3.01.97.18.36.3.74.34,1.15.02.22-.03.3-.27.3Z"/>
    </g>
  </g>
</svg>