<?xml version="1.0" encoding="UTF-8"?>
<svg id="Capa_2" data-name="Capa 2" xmlns="http://www.w3.org/2000/svg" viewBox="0 0 98 37.54">
  <defs>
    <style>
      .cls-1 {
        fill: #ce1d11;
        stroke-width: 0px;
      }
    </style>
  </defs>
  <g id="Capa_1-2" data-name="Capa 1">
    <g>
      <g>
        <path class="cls-1" d="m98,5.96c-2.17-.35-4.35-.06-6.52-.15-1.05-.05-.8.72-.8,1.28-.01,4.28,0,8.57,0,12.85,0,2.53-.04,5.06.02,7.59.02.95-.25,1.29-1.23,1.22-1.14-.08-2.29-.09-3.43,0-1.05.09-1.17-.36-1.16-1.25.03-6.61.02-13.21.02-19.82,0-.57-.05-1.13-.07-1.7-2.05-.41-4.12-.15-6.18-.16-1.07,0-1.51-.27-1.4-1.38.13-1.32-.53-3.01.25-3.9.81-.91,2.54-.29,3.86-.31,5.04-.04,10.08-.02,15.12,0,.51,0,1.04-.13,1.53.14v5.58Z"/>
        <path class="cls-1" d="m98,.39c-6.42,0-12.85.04-19.27-.03-1.21-.01-1.44.35-1.42,1.46.05,3.91,0,3.87,3.92,3.93,1.2.02,2.44-.36,3.6.24-2.16,0-4.33-.02-6.49.05-1.04.03-1.35-.39-1.3-1.36.07-1.53.05-3.07.07-4.6,6.55,0,13.1,0,19.65.02.4,0,.97-.35,1.25.29Z"/>
        <path class="cls-1" d="m61.81.08c.05,5.6.17,11.2-.06,16.8-.94-.49-.72-1.4-.72-2.17-.04-3.9,0-7.79-.02-11.69,0-2.05-.1-2.11-2.21-2.16-.96-.02-1.97.22-2.86-.4-.02-.13-.04-.26-.06-.39,1.98,0,3.95,0,5.93,0Z"/>
        <path class="cls-1" d="m70.55.4V.08h5.61c0,.11,0,.21,0,.32-1.87.74-3.74.74-5.6,0Z"/>
        <path class="cls-1" d="m70.55.4c1.87,0,3.74,0,5.6,0,0,6.03.19,12.06-.06,18.08-.31,7.51-6.34,11.8-13.37,9.84-3.57-1-6.11-4.23-6.52-8.55-.61-6.42-.14-12.87-.27-19.31,1.4-.03,2.8.02,4.2-.1,1.13-.09,1.5.21,1.47,1.41-.08,4.53-.04,9.07-.02,13.6,0,.5-.15,1.03.16,1.5-.02,1.35.09,2.68.65,3.93.76,1.71,1.99,2.52,3.74,2.49,1.76-.03,3.14-1,3.76-2.71.48-1.32.59-2.71.59-4.11.02-5.36.04-10.73.06-16.09Z"/>
        <path class="cls-1" d="m29.94,8.8c0,6.21,0,12.02,0,17.84q0,1.98-2.04,1.98-2.95,0-2.95-2.97c0-7.94.03-15.88-.03-23.83-.01-1.27.41-1.42,1.55-1.5,1.61-.11,2.68.47,3.76,1.59,2.69,2.79,5.53,5.45,8.26,8.21.62.63.94.62,1.57,0,2.97-2.96,6.07-5.79,8.96-8.82,1.26-1.32,2.66-.78,4.03-.91.12-.01.3.1.38.21.32.46-.09,3.7-.53,4.12-4.32,4.09-8.66,8.16-12.95,12.28-.67.64-1.01.34-1.51-.14-2.72-2.61-5.45-5.2-8.48-8.07Z"/>
        <path class="cls-1" d="m54.8,28.62c-1.97,0-3.69-.04-5.39.02-.84.03-1.04-.25-1.02-1.04.04-3.24.02-6.49.02-10.06-2.05,1.97-3.91,3.76-5.77,5.56-.89.87-1.8,1.72-2.64,2.63-.52.56-.87.65-1.47.06-2.1-2.07-4.23-4.11-6.4-6.11-.47-.44-.64-.86-.63-1.46.03-1.69,0-3.38,0-5.33,2.3,2,4.51,3.83,6.59,5.78.87.81,1.33.66,2.11-.09,4.29-4.11,8.64-8.16,13.23-12.49,0,3.15.01,5.99,0,8.84-.02,3.66,0,7.32-.12,10.98-.04,1.16.83,1.67,1.49,2.69Z"/>
        <path class="cls-1" d="m6.28,14c.68.14,1.03-.41,1.45-.75,4.49-3.59,8.97-7.19,13.46-10.78.19-.16.41-.28.84-.58,0,2.55,0,4.9,0,7.24,0,.5-.39.7-.7.96-2.94,2.37-5.89,4.74-8.84,7.11-.36.29-.72.54-1.24.54-2.9-.02-5.79-.01-8.89-.01.37-.41.59-.66.81-.91.2-.7.87-.95,1.34-1.4.34-.3.64-.63.92-.99.23-.25.49-.45.85-.43Z"/>
        <path class="cls-1" d="m6.28,14l-.63.64c-.4.23-.82.42-1.12.78-.48.49-1.07.81-1.7,1.06-1.31.85-2.73.24-2.77-1.26-.06-2.25-.02-5.5-.02-8.06,2.16,1.73,4.1,4.3,6.06,5.85.38.3.19.65.19.99Z"/>
        <path class="cls-1" d="m46.97,34.19c0-.1,0-.21,0-.31,0-2.74.33-3.01,3.09-2.58.41.06.7.12.68.62-.02.44-.21.67-.67.64-.16,0-.32-.03-.47,0-.4.09-1.07-.27-1.12.45-.05.79.64.46,1.03.5.48.05.95-.03.92.69-.03.65-.47.52-.87.58-.4.06-1.05-.29-1.09.47-.04.73.59.53,1.02.58.51.06,1.25-.25,1.24.7-.01.95-.76.65-1.27.66-2.5.07-2.5.06-2.5-3.01Z"/>
        <path class="cls-1" d="m33.87,34.17v-.31c0-2.8.14-2.92,2.93-2.57.38.05.72.03.73.55.01.54-.23.74-.75.71-.26-.02-.52,0-.78,0-.39,0-.74,0-.7.55.04.46.38.36.67.42.46.1,1.26-.38,1.23.64-.03,1-.82.49-1.28.59-.3.07-.61.03-.64.47-.03.5.25.61.67.6.31,0,.62.01.93,0,.52-.02.77.2.74.73-.02.44-.23.66-.68.63-.05,0-.1,0-.16,0q-2.94.31-2.94-3.03Z"/>
        <path class="cls-1" d="m12.02,35.41c.45,1.36-.24,1.79-1.34,1.89-1.3.12-2.36-.3-3.02-1.46-.67-1.18-.63-2.38.15-3.49.75-1.08,1.86-1.47,3.13-1.23.65.12,1.38.31,1.16,1.28-.27,1.2-.88.19-1.27.14-.74-.09-1.35-.04-1.78.61-.43.66-.46,1.37-.03,2.03.44.69,1.07.93,1.87.63.33-.12.67-.24,1.12-.4Z"/>
        <path class="cls-1" d="m78.46,33.93c1.02-.68.33-2.98,2.73-2.54-.91,2-1.79,3.91-2.81,6.15-1.02-2.22-1.9-4.14-2.8-6.11,2.47-.66,1.76,1.87,2.89,2.5Z"/>
        <path class="cls-1" d="m70.49,31.3c.57,0,1.14,0,1.71,0,.4,0,.85-.08.85.57,0,.56-.28.75-.77.67-1.07-.19-1.18.4-1.12,1.24.05.72.04,1.44,0,2.16-.03.53.32,1.32-.78,1.27-1.07-.05-.67-.83-.72-1.36-.05-.51-.01-1.03-.01-1.54,0-.94.26-2.05-1.37-1.79-.38.06-.48-.28-.5-.62-.01-.38.16-.58.53-.58.72,0,1.45,0,2.17,0,0,0,0,0,0-.01Z"/>
        <path class="cls-1" d="m73.6,34.28c0-.72.02-1.44,0-2.16-.02-.57.14-.86.78-.83.54.02.73.25.73.76-.01,1.49,0,2.99,0,4.48,0,.55-.31.67-.8.69-.59.02-.7-.29-.69-.77,0-.72,0-1.44,0-2.16Z"/>
        <path class="cls-1" d="m2.82,16.48c.41-.55.97-.92,1.56-1.24.32-.11.4.03.34.32-.38.59-.97.92-1.55,1.26-.12-.11-.23-.23-.35-.34Z"/>
        <path class="cls-1" d="m4.72,15.57c-.11-.11-.22-.21-.34-.32.25-.56.69-.71,1.27-.6-.1.52-.52.72-.93.92Z"/>
        <path class="cls-1" d="m32.75,32.41c0-.58.09-1.13-.82-1.12-.87,0-.68.57-.69,1.05-.02.72,0,1.44,0,2.16,0,.6.16,1.3-.71,1.48-.8.17-1.17-.23-1.48-.95-.58-1.33-1.28-2.61-2-4.07-1.01,1.98-1.91,3.75-2.88,5.65-.75-.98-1.89-1.69-.59-2.96.3-.29.19-.79.02-1.18-.67-1.5-2.04-1.18-3.24-1.15-1.31.03-.59,1.08-.67,1.65-.12.86-.1,1.75,0,2.62.06.55-.53,1.53.6,1.57,1.28.04.52-1.05.73-1.61.05-.12.09-.24.16-.42.17.15.31.22.39.33,1.74,2.23,1.73,2.16,4.41.97.68-.3,1.62-.4,2.43.32.94.84,2.23.7,3.33.34.96-.31,1.05-1.3,1.03-2.22-.02-.82,0-1.65,0-2.47Zm-11.12,1.45c-.48.08-.68-.16-.64-.61.03-.33-.15-.82.39-.85.43-.03.81.18.86.73-.02.37-.17.66-.61.73Zm5.67,1.32c-.11.12-.61.09-.69-.03-.38-.54.08-.88.42-1.35.19.53.75.88.27,1.38Z"/>
        <path class="cls-1" d="m15.62,31.05c-1.66.04-2.96,1.42-2.95,3.14,0,1.84,1.31,3.14,3.1,3.1,1.72-.03,2.94-1.32,2.94-3.1,0-1.82-1.35-3.19-3.09-3.15Zm.15,4.87c-1.09.06-1.58-.78-1.59-1.71-.01-.86.41-1.67,1.43-1.71,1.1-.04,1.48.74,1.61,1.68-.08.94-.49,1.69-1.45,1.75Z"/>
        <path class="cls-1" d="m59.28,31.05c-1.66,0-3,1.35-3.04,3.08-.05,1.81,1.27,3.17,3.05,3.17,1.74,0,3-1.26,3.04-3.02.04-1.78-1.33-3.22-3.05-3.22Zm.05,4.87c-1.1.02-1.42-.84-1.58-1.65.12-1.02.51-1.77,1.5-1.78,1.07,0,1.56.78,1.55,1.75,0,.9-.47,1.66-1.47,1.68Z"/>
        <path class="cls-1" d="m84.23,31.05c-1.63.03-3.01,1.46-3.03,3.13-.01,1.79,1.35,3.15,3.13,3.12,1.72-.02,3-1.34,3-3.07,0-1.79-1.38-3.2-3.11-3.18Zm.05,4.87c-1.06-.02-1.53-.82-1.5-1.79.03-.9.49-1.64,1.5-1.64,1.12,0,1.39.86,1.53,1.72-.14.97-.54,1.73-1.53,1.71Z"/>
        <path class="cls-1" d="m46.02,33.36c-.49-1.62-2.1-2.45-4.32-2.03-1.53.29-.4,1.61-.73,2.39-.06.13,0,.3,0,.46v.77c0,2.44.31,2.68,2.76,2.1.25-.06.51-.11.74-.22,1.33-.61,1.98-2.08,1.56-3.47Zm-2.94,2.38c-1.2-.02-.31-1.04-.7-1.52.42-.49-.53-1.5.64-1.58.94-.06,1.58.56,1.61,1.53.03.99-.6,1.59-1.55,1.57Z"/>
        <path class="cls-1" d="m67.28,33.3c.13-.14,0-.6-.12-.87-.67-1.52-2.07-1.14-3.25-1.11-1.23.04-.62,1.08-.68,1.67-.09.97-.05,1.96-.01,2.94.02.5-.28,1.21.67,1.26,1,.06.69-.66.73-1.16.03-.28,0-.57,0-1.04,1.17.81,1.3,2.83,3.35,2.03-.84-1.2-2.07-2.26-.7-3.73Zm-2.15.57c-.42.05-.55-.2-.5-.54.05-.34-.23-.83.34-.96.44.1.85.23.88.72.03.47-.25.73-.73.78Z"/>
        <path class="cls-1" d="m55.26,31.84c-.91-.83-2.09-.67-3.1-.45-.81.18-.27,1.14-.38,1.74-.07.35-.01.72-.01,1.07,0,.61-.02,1.23,0,1.84.02.51-.23,1.18.74,1.16.81-.02.78-.56.72-1.05-.11-.88.33-1.05,1.09-1.24,1.59-.41,2.05-2.05.94-3.07Zm-.92,1.4c-.06.34-.27.56-.62.57-.59.01-.45-.44-.46-.77,0-.33.09-.61.48-.58.47.1.68.35.6.78Z"/>
      </g>
      <path class="cls-1" d="m.03,7.16v8.89c0,.93.76,1.68,1.69,1.68l5.15-.03c1.51,0,2.24-1.84,1.15-2.89L0,7.11"/>
      <path class="cls-1" d="m6.28,25c.68.14,1.03-.41,1.45-.75,4.49-3.59,8.97-7.19,13.46-10.78.19-.16.41-.28.84-.58,0,2.55,0,4.9,0,7.24,0,.5-.39.7-.7.96-2.94,2.37-5.89,4.74-8.84,7.11-.36.29-.72.54-1.24.54-2.9-.02-5.79-.01-8.89-.01.37-.41.59-.66.81-.91.2-.7.87-.95,1.34-1.4.34-.3.64-.63.92-.99.23-.25.49-.45.85-.43Z"/>
      <path class="cls-1" d="m6.28,25l-.63.64c-.4.23-.82.42-1.12.78-.48.49-1.07.81-1.7,1.06-1.31.85-2.73.24-2.77-1.26-.06-2.25-.02-5.5-.02-8.06,2.16,1.73,4.1,4.3,6.06,5.85.38.3.19.65.19.99Z"/>
      <path class="cls-1" d="m2.82,27.48c.41-.55.97-.92,1.56-1.24.32-.11.4.03.34.32-.38.59-.97.92-1.55,1.26-.12-.11-.23-.23-.35-.34Z"/>
      <path class="cls-1" d="m4.72,26.57c-.11-.11-.22-.21-.34-.32.25-.56.69-.71,1.27-.6-.1.52-.52.72-.93.92Z"/>
      <path class="cls-1" d="m.03,18.16v8.89c0,.93.76,1.68,1.69,1.68l5.15-.03c1.51,0,2.24-1.84,1.15-2.89L0,18.11"/>
    </g>
  </g>
</svg>