<?xml version="1.0" encoding="UTF-8"?>
<svg id="Capa_2" data-name="Capa 2" xmlns="http://www.w3.org/2000/svg" viewBox="0 0 68.62 44.06">
  <defs>
    <style>
      .cls-1 {
        fill: #ce1d11;
        stroke-width: 0px;
      }
    </style>
  </defs>
  <g id="Capa_1-2" data-name="Capa 1">
    <g>
      <path class="cls-1" d="m36.48,25.84c.27.18.57.31.79.54.37.39.25.8-.27.85-.48.05-1.05.12-1.43-.08-1.29-.7-2.48-1.49-3.08-2.99-1.65-4.17-2.95-8.45-4.07-12.79-.06-.21-.14-.42-.21-.63-.08,0-.16-.02-.24-.03-.08.3-.24.6-.23.9.19,5.12.03,10.26.87,15.35.07.41.06.84.05,1.26-.03,1.63-.06,3.26-.14,4.89-.02.33-.21.83-.44.92-.43.16-.95.1-1.42.03-.1-.01-.2-.44-.21-.68-.02-1.93.03-3.87-.04-5.8-.11-3.35-.33-6.7-.43-10.05-.07-2.17-.03-4.33-.03-6.5,0-2.52.01-5.03-.01-7.55,0-.89.22-1.2,1.13-1.18.6.02,1.03-.11,1.44-.61.57-.7.92-.58,2.11.04.22.12.41.3.65.48.11-.14.19-.33.3-.37.18-.05.53-.07.58.02.62,1.22,1.49,2.29,1.8,3.68.88,3.98,1.87,7.94,2.82,11.91.07.27.19.53.29.8.09,0,.18,0,.26,0,.09-.33.21-.66.26-.99.63-3.68,1.23-7.36,1.87-11.03.13-.75.32-1.51.58-2.23.68-1.86,1.6-1.75,3.28-1.09.42.17.68.32,1.11-.02.29-.22.83-.26,1.2-.16,1.01.27,2.16.78,2.22,2.02.1,1.99.07,4,.08,5.99.02,2.75-.05,5.5.04,8.24.1,3.03.34,6.05.51,9.07.07,1.35.08,2.7.14,4.05.07,1.31-.02,1.48-1.26,1.98-.12.05-.27.14-.32.25-.36.71-.94.63-1.49.37-.59-.27-1.14-.62-1.7-.96-.89-.55-1.27-1.37-1.3-2.4-.13-4.43-.26-8.85-.44-13.27-.11-2.79-.31-5.59-.49-8.38-.02-.32-.21-.62-.32-.93-.17.27-.39.52-.49.81-1.19,3.51-1.93,7.1-2.07,10.81-.02.69-.22,1.38-.29,2.07-.05.43-.09.89-.02,1.31.2,1.26-.35,1.89-1.61,1.76-.04,0-.08.04-.12.05-.07.08-.15.16-.22.25Z"/>
      <path class="cls-1" d="m17.12,2.95c.26.31.36.43.52.62.14-.24.31-.44.37-.66.1-.38.12-.78.21-1.17.1-.44.34-.55.77-.31.78.44,1.24,1.04,1.14,1.97-.21,1.97-.4,3.94-.65,5.9-.11.83-.1.92.76.99.46.04.94.02,1.39.1.59.11.58.37.32.87-.53,1.05-1.51,1.3-2.48,1.57-.46.13-.62.37-.71.8-.38,1.82-.79,3.64-1.18,5.46-.17.8-.07.9.74.91.37,0,.75.02,1.11.08.41.07.69.26.58.77-.03.13.08.32.18.43.45.51.26,1.25-.41,1.41-.7.16-1.4.31-2.11.38-.53.06-.81.27-.9.78-.16.89-.34,1.78-.5,2.68-.38,2.08-.69,4.18-1.16,6.24-.17.77-.61,1.52-1.08,2.16-.55.75-1.02.67-1.71.06-.18-.16-.58-.09-1.07-.14-.1-.46-.45-1.18-.36-1.85.23-1.79.63-3.56.98-5.34.21-1.1.44-2.19.67-3.28.08-.41-.12-.57-.5-.54-1.3.12-2.6.24-3.89.4-.2.02-.5.24-.53.41-.2.98-.37,1.96-.49,2.95-.25,1.99-.42,3.98-.71,5.96-.08.52-.43,1.02-.73,1.47-.09.14-.6.2-.68.1-.48-.59-.94-1.2-1.3-1.86-.56-1.03-.34-2.14-.16-3.22.26-1.61.58-3.21.88-4.81.11-.56-.18-.64-.63-.59-.58.05-1.16.12-1.74.12-.53,0-.98-.27-1.05-.83-.03-.26.11-.69.32-.8.53-.3.75-.72.94-1.28.23-.68,1.03-.56,1.61-.74.15-.05.32,0,.49.02.51.06.79-.16.88-.67.36-1.95.72-3.89,1.09-5.83.1-.5-.09-.72-.57-.69-.53.03-1.07.12-1.6.13-.69.01-.84-.19-.78-.88.02-.3-.03-.6-.06-.9-.1-1.06.39-1.62,1.45-1.64.49,0,.98-.03,1.47-.02.51.01.78-.23.87-.72.48-2.61.95-5.22,1.43-7.83.05-.28.17-.74.32-.77.26-.06.59.14.87.28.4.21.76.49,1.15.71.46.25.84,1.12.71,1.78-.3,1.62-.62,3.25-.93,4.87-.04.21-.06.41-.09.62-.08.54.14.76.7.74,1.16-.04,2.33-.06,3.5-.05.52,0,.82-.17.92-.72.3-1.63.62-3.25.95-4.87.11-.53.3-1.05.51-1.76Zm-2.27,10.55c.02-.64-.37-.57-.76-.49-1.25.26-2.5.48-3.74.79-.29.07-.68.39-.75.66-.47,1.94-.86,3.9-1.29,5.86-.11.49,0,.69.56.61,1.24-.18,2.49-.33,3.74-.47.55-.06.82-.36.92-.89.08-.43.2-.86.29-1.29.35-1.59.69-3.18,1.03-4.78Z"/>
      <path class="cls-1" d="m66.69,1.17c.33.27.45.36.54.44.38-.55.75-1.08,1.11-1.6l.24.11c0,.26.08.55-.01.76-.76,1.62-.73,3.4-1.09,5.1-.75,3.6-1.49,7.2-2.22,10.8-.13.64-.22,1.29-.31,1.93-.43,2.93-.8,5.86-1.3,8.78-.32,1.88-.83,3.72-1.26,5.58-.06.27-.09.56-.22.8-.13.26-.36.48-.54.71-.17-.2-.34-.4-.57-.67-.11.16-.29.38-.43.63-.32.55-.8.9-1.43.83-.65-.08-1.4-.12-1.67-.92-.36-1.1-.61-2.25-1.04-3.32-1.13-2.81-1.57-5.79-2.22-8.72-.66-2.97-1.47-5.91-2.11-8.89-.43-2-.66-4.04-1.02-6.05-.11-.61-.37-1.2-.51-1.81-.11-.49-.13-1-.19-1.5.08-.03.16-.07.25-.1.22.36.44.72.67,1.08.04,0,.09.01.13.02-.03-.52-.08-1.05-.07-1.57,0-.34,0-.89.17-.97.35-.17.83-.15,1.24-.08.27.05.5.31.79.5.11-.08.23-.14.32-.23.63-.68.91-.68,1.25.21.49,1.25.93,2.54,1.26,3.84.57,2.28,1.04,4.59,1.56,6.88.06.25.14.49.23.73,1.21,3.09,1.92,6.31,2.44,9.58.14.85.26,1.7.43,2.55.03.17.22.31.33.46.1-.16.27-.31.3-.48.43-2.74.82-5.48,1.26-8.21.27-1.7.62-3.39.9-5.09.16-.92.2-1.86.4-2.77.48-2.23.99-4.45,1.53-6.66.21-.86.54-1.7.86-2.67Zm-5.35,30.64c.11,0,.22.01.33.02.02-.45.04-.9.07-1.35-.09,0-.17-.01-.26-.02-.05.45-.09.9-.14,1.35Z"/>
      <path class="cls-1" d="m46.95,38.83c-.09.26-.21.52-.26.79-.21,1.1-.39,2.2-.59,3.3-.04.21-.05.44-.16.6-.11.16-.32.26-.48.39-.1-.18-.3-.38-.28-.54.13-.92.31-1.84.48-2.75.19-1.01.39-2.01.57-3.02.07-.39.06-.82.6-.89.58-.07.75.36.92.78.52,1.32,1.03,2.65,1.55,3.97.04.1.11.19.26.45.16-.49.32-.82.39-1.17.2-.98.36-1.97.54-2.96.05-.25.07-.53.21-.73.1-.15.37-.19.56-.28.07.18.22.37.19.53-.25,1.45-.52,2.89-.79,4.33-.08.41-.15.83-.24,1.24-.09.42-.01.97-.6,1.06-.62.09-.73-.45-.9-.88-.5-1.26-1-2.51-1.5-3.77-.06-.14-.15-.28-.23-.41-.08-.01-.15-.03-.23-.04Z"/>
      <path class="cls-1" d="m42.94,43.47c-.08.09-.23.28-.38.47-.19-.17-.46-.31-.54-.52-.13-.34-.15-.73-.18-1.1-.04-.47-.28-.66-.74-.63-.16,0-.33.02-.49,0-.98-.15-1.6.22-1.89,1.18-.09.3-.27.61-.49.83-.15.14-.44.13-.68.19,0-.19-.08-.42,0-.57,1.03-2.06,2.07-4.12,3.16-6.16.13-.24.55-.39.86-.42.16-.01.47.32.5.53.31,2,.57,4.01.87,6.2Zm-1.64-5.12c-.1,0-.2,0-.3,0-.31.59-.64,1.17-.93,1.78-.09.19-.08.43-.11.65.41.04.81.12,1.22.11.14,0,.4-.26.39-.38-.05-.72-.17-1.43-.27-2.15Z"/>
      <path class="cls-1" d="m21.04,44.01c-1.49,0-2.27-.69-2.14-2.17.14-1.57.49-3.12.79-4.67.03-.17.35-.28.53-.42.1.2.32.41.29.59-.18,1.2-.41,2.38-.63,3.57-.03.18-.07.37-.1.55-.11.87.22,1.56.81,1.75.75.25,1.66-.07,1.99-.88.35-.87.55-1.82.76-2.74.18-.75.3-1.51.43-2.26.06-.37.23-.67.62-.54.14.05.28.45.24.66-.26,1.47-.51,2.94-.86,4.38-.36,1.48-1.33,2.18-2.75,2.19Z"/>
      <path class="cls-1" d="m1.84,43.97c-.4,0-.79-.02-1.19,0-.61.04-.72-.26-.62-.78.37-1.96.72-3.94,1.13-5.89.05-.24.43-.57.68-.6.83-.07,1.68-.05,2.51,0,.18,0,.34.22.51.34-.17.15-.33.4-.52.42-.51.06-1.02.05-1.53.03-.56-.02-.85.19-.93.78-.22,1.48-.23,1.47,1.25,1.5.34,0,.94-.23.96.35.02.66-.61.36-.97.44-.02,0-.05,0-.07,0-1.58,0-1.98.43-1.96,2.03,0,.41.17.59.59.58.54-.01,1.07-.03,1.61.02.17.02.33.23.49.35-.16.14-.3.37-.47.39-.48.05-.98.02-1.47.02,0,0,0,0,0,0Z"/>
      <path class="cls-1" d="m7.57,44.06c-.39-.06-.8-.07-1.15-.22-.18-.08-.24-.41-.36-.63.22-.05.46-.18.64-.12.67.21,1.32.31,1.95-.09.76-.49.83-1.41.15-2-.33-.29-.73-.5-1.08-.77-1.03-.79-1.2-1.83-.48-2.79.63-.84,2.32-1.19,3.11-.63.12.08.22.33.18.44-.04.12-.26.25-.41.26-.27,0-.55-.11-.83-.12-.61-.01-1.19.12-1.41.78-.22.65.07,1.13.63,1.47.24.15.48.28.71.44.92.66,1.2,1.42.92,2.42-.23.81-1.11,1.45-2.07,1.5-.16,0-.33,0-.49,0,0,.02,0,.04,0,.06Z"/>
      <path class="cls-1" d="m15.27,36.69c.63,0,1.26-.03,1.88.01.19.01.37.21.55.32-.17.15-.34.31-.52.46-.03.02-.09.01-.14.01-1.44.14-1.46.13-1.75,1.53-.26,1.28-.47,2.56-.71,3.84-.04.21-.05.44-.17.6-.14.19-.38.32-.57.47-.09-.21-.29-.43-.26-.62.12-.88.29-1.74.45-2.61.15-.82.29-1.65.5-2.46.14-.56-.09-.73-.58-.74-.23,0-.48.04-.69-.02-.19-.05-.35-.22-.52-.34.17-.15.33-.42.51-.43.67-.05,1.35-.02,2.02-.02Z"/>
      <path class="cls-1" d="m56.04,36.68c.61,0,1.22-.03,1.82.02.19.02.37.24.55.37-.18.14-.35.39-.54.41-1.56.2-1.57.19-1.87,1.73-.25,1.26-.47,2.52-.71,3.78-.04.23-.07.49-.2.66-.12.15-.37.26-.56.25-.09,0-.27-.32-.24-.48.1-.76.25-1.52.39-2.27.17-.89.35-1.78.54-2.67.18-.87.11-.96-.8-.98-.14,0-.3.04-.41-.02-.2-.1-.37-.26-.55-.39.19-.13.37-.37.57-.38.67-.05,1.35-.02,2.03-.02,0,0,0,0,0,0Z"/>
      <path class="cls-1" d="m64.68,43.97c-.42,0-.84,0-1.26,0-.43,0-.61-.2-.54-.61.1-.62.23-1.24.34-1.85.26-1.4.53-2.79.79-4.19.06-.36.18-.7.59-.56.15.05.29.48.25.71-.26,1.61-.58,3.21-.85,4.82-.14.8-.04.88.79.89.47,0,.94-.02,1.4.03.16.02.29.22.44.33-.14.13-.26.37-.41.39-.51.05-1.02.02-1.54.02,0,0,0,.01,0,.02Z"/>
      <path class="cls-1" d="m36.41,37.12c-.37,1.97-.72,3.8-1.07,5.63-.04.23-.04.49-.15.68-.13.21-.37.34-.56.51-.1-.22-.32-.47-.29-.67.21-1.31.47-2.61.72-3.92.13-.71.24-1.43.43-2.12.05-.2.35-.37.58-.46.07-.03.27.26.35.35Z"/>
      <path class="cls-1" d="m59.18,43.58c.15-.83.27-1.54.4-2.25.25-1.33.5-2.65.74-3.98.07-.39.25-.71.67-.58.15.05.28.48.24.71-.31,1.86-.67,3.71-1.02,5.56-.04.23-.08.48-.21.65-.1.13-.36.24-.52.22-.14-.02-.25-.25-.31-.33Z"/>
      <path class="cls-1" d="m32.54,38.73c-.18-.74-.57-1.33-1.26-1.68-.95-.48-1.97-.47-3.01-.37-.56.05-.82.3-.91.85-.28,1.61-.6,3.21-.89,4.81-.29,1.65-.28,1.65,1.39,1.64.23,0,.47,0,.7,0,2.71-.1,4.61-2.61,3.98-5.25Zm-4.5,4.52c-.57-.02-.81-.19-.68-.8.29-1.41.56-2.83.81-4.24.1-.61.45-.81,1.01-.82,1.62-.03,2.5.78,2.48,2.32-.02,2.16-1.51,3.61-3.62,3.54Z"/>
    </g>
  </g>
</svg>