<?xml version="1.0" encoding="UTF-8"?>
<svg id="Capa_2" data-name="Capa 2" xmlns="http://www.w3.org/2000/svg" viewBox="0 0 140.88 43.93">
  <defs>
    <style>
      .cls-1 {
        fill: #dc0c0c;
      }

      .cls-1, .cls-2, .cls-3, .cls-4 {
        stroke-width: 0px;
      }

      .cls-2 {
        fill: #fefdfd;
      }

      .cls-3 {
        fill: #fefcfc;
      }

      .cls-4 {
        fill: #fdfdfd;
      }
    </style>
  </defs>
  <g id="Capa_1-2" data-name="Capa 1">
    <g>
      <path class="cls-1" d="m7.56,9.05c1.16,0,2.32.02,3.47,0,.48-.01.65.19.7.62.05.4.1.81.17,1.21.11.64.36.75.85.33.69-.59,1.38-1.16,2.17-1.62,2.9-1.67,7.01-.51,8.76,2.33,1.41,2.29,1.48,4.58.57,7.01-.07.18-.28.39-.06.55.22.16.35-.13.51-.23,2.3-1.53,4.89-1.92,7.55-1.66,1.65.16,3.29.18,4.93.19,1.75,0,3.49,0,5.24,0,.18,0,.47-.03.52.06.37.69.76.31,1.16.06.86-.55,1.73-.36,2.61-.06.71.24,1.35.63,1.99,1.02.17.1.36.31.54.17.1-.07.11-.36.06-.51-.3-.76.14-.81.68-.74.5.07.62-.15.58-.61-.1-1.21-.04-2.41.55-3.51.74-1.37,1.88-2.2,3.48-2.21,1.37,0,2.63.96,3.04,2.27.19.62.39,1.25.37,1.91,0,.13-.09.27.09.35.17.07.23-.09.32-.18.77-.77,1.55-1.53,2.49-2.1,2.44-1.48,4.99-2.14,7.82-1.14,2.26.8,3.81,2.29,4.76,4.43.25.56.55.83,1.21.79,1.2-.07,2.41.01,3.61-.03.59-.02.92.11.84.77-.01.09-.01.19.02.27.08.19.03.51.34.51.26,0,.25-.28.31-.47q.3-1.06,1.42-1.06c1.77,0,3.54,0,5.31,0,.4,0,.72-.01.66.55-.05.49.26.45.57.28.88-.5,1.82-.79,2.81-.95,1.91-.31,3.64.1,5.17,1.3.6.47.86.38.93-.38.05-.64.31-.82.94-.8,1.25.05,1.25.01,1.47-1.19.14-.78.3-1.55.41-2.34.06-.41.26-.52.64-.52,2.16,0,4.31.01,6.47,0,.43,0,.54.12.44.56-.21.95-.32,1.92-.56,2.86-.15.59.06.66.55.65.79-.02,1.59.02,2.38-.02.5-.02.72.11.59.64-.04.17-.21.41.04.55.21.13.37-.05.55-.15,2.42-1.3,5-1.47,7.66-1.13.79.1,1.57.21,2.35.35.46.08.56-.08.61-.53.21-1.88.93-3.52,2.3-4.87,1.65-1.62,3.51-2.85,5.81-3.33.36-.08.38-.35.43-.61.52-2.68,1.05-5.36,1.54-8.05.11-.6.29-.73.9-.51,1.49.54,3,1.01,4.51,1.48.45.14.58.32.47.83-.43,2.01-.7,4.05-1.2,6.04-.12.46.07.67.51.76,1.34.26,2.59.81,3.89,1.18.41.12.58.27.48.76-.42,2.1-.82,4.21-1.15,6.33-.1.64-.4.65-.87.54-.99-.22-1.97-.53-2.98-.62-.22-.02-.45-.08-.67-.09-.38-.02-.9-.23-1,.37-.08.5-.2,1.01.52,1.35,1.35.64,2.64,1.37,3.48,2.72,1.14,1.84,1.32,3.78.74,5.79-1.1,3.78-3.84,5.89-7.44,7.05-.33.11-.5.26-.55.59-.42,2.54-1.08,5.04-1.36,7.6-.01.11-.03.22-.05.34-.13.93-.17.96-1.04.67-1.48-.48-2.96-.99-4.45-1.45-.45-.14-.56-.35-.48-.78.39-1.95.74-3.9,1.14-5.85.12-.59.08-.96-.62-1-.18-.01-.38-.03-.53-.11-2-1.03-3.87.06-5.78.37-1.27.21-2.45.05-3.41-.87-.4-.38-.68-.21-.99.05-.6.51-1.24.91-2.07.89-1.13-.03-2.02-.58-2.84-1.29-.19-.16-.37-.34-.58-.46-.19-.11-.45-.1-.46.19-.01.46-.33.52-.66.63-1.38.43-2.75.88-4.22.94-1.42.05-2.55-.51-3.51-1.49-.43-.44-.82-.91-1.13-1.44-.41-.7-.57-.72-1.06-.1-1.28,1.61-2.89,2.66-4.95,2.95-1.75.25-3.38-.04-4.81-1.14-.38-.29-.6-.32-1.13-.05-1.79.92-3.69,1.66-5.78,1.06-.59-.17-1.14-.43-1.54-.94-.3-.38-.61-.4-.98-.07-.47.42-.96.84-1.57,1.06-1.08.41-2.05.02-2.97-.5-.47-.27-.93-.55-1.31-.96-.29-.3-.55-.34-.93-.04-2.57,2.04-5.51,2.46-8.58,1.6-1.97-.55-3.63-1.72-4.79-3.49-.09-.14-.16-.29-.35-.27-.23.03-.17.24-.21.37-.13.43-.33.87-.33,1.31,0,.73-.41,1.02-1.01,1.25-1.29.51-2.61.9-4.01.87-1.37-.03-2.43-.6-3.1-1.84-.37-.67-.44-.69-1.05-.18-1.21,1-2.56,1.71-4.12,1.94-.56.08-1.13.07-1.69.06-.38,0-.57.08-.62.51-.19,1.45-.44,2.9-.63,4.35-.08.63-.31.87-.98.86-2.06-.05-4.13-.03-6.19-.01-.46,0-.62-.04-.5-.59.33-1.5.57-3.02.84-4.53.13-.71.05-.81-.68-.68-.89.15-1.74.16-2.61-.14-.43-.15-.76-.39-1.07-.69-.21-.21-.41-.28-.72-.1-2.48,1.5-3.26,1.43-5.47-.57-.52-.48-.91-.55-1.46-.09-.63.52-1.37.89-2.1,1.24-2.13,1.02-3.86.54-5.32-1.19-1.38-1.63-2.28-3.52-2.86-5.56-.04-.14.03-.35-.2-.37-.27-.03-.23.21-.29.37-.78,2.17-1.65,4.31-2.16,6.57-.07.32-.27.42-.59.42-2.52,0-5.04-.02-7.56,0-.64,0-.43-.35-.36-.65.78-3.32,1.64-6.63,2.12-10.02.5-3.49,1.38-6.93,1.52-10.47.05-1.27-.09-2.53-.25-3.79-.1-.77-.08-.82.68-.82,1.13,0,2.27,0,3.4,0Z"/>
      <path class="cls-4" d="m129.56,24.17c.06-.36-.16-.47-.43-.6-1.02-.47-2.04-.9-2.97-1.55-2.11-1.49-2.71-4.08-1.78-6.3.92-2.2,2.69-3.37,4.76-4.23.82-.34,1.66-.65,2.57-.7.31-.02.47-.21.54-.58.47-2.48.99-4.94,1.48-7.42.04-.22.09-.34.34-.26.58.18,1.15.35,1.73.52.35.1.43.33.36.66-.45,2.11-.89,4.23-1.32,6.34-.07.36-.09.61.45.63,1.44.07,2.81.49,4.17.91.4.13.43.36.38.65-.2,1.1-.43,2.19-.63,3.28-.07.37-.16.47-.57.37-1.42-.35-2.86-.53-4.32-.62-.32-.02-.43.05-.49.42-.16,1.01-.4,2.01-.63,3.01-.11.47-.04.75.46,1,1.19.6,2.44,1.09,3.52,1.93.82.64,1,1.51,1.15,2.39.46,2.83-.77,5-2.96,6.61-1.28.94-2.8,1.58-4.42,1.75-.5.05-.56.32-.63.66-.41,2.26-.82,4.52-1.23,6.78-.03.17-.12.34-.12.52,0,.44-.22.42-.53.3-.19-.07-.38-.13-.57-.2-.49-.19-1.23-.09-1.43-.56-.17-.39.11-.98.21-1.49.36-1.79.7-3.59,1.1-5.37.08-.36.12-.47-.33-.51-1.71-.16-3.4-.48-5.03-1.04-.5-.17-.65-.35-.53-.88.24-1.04.39-2.11.57-3.16.06-.37.24-.44.59-.31,1.66.62,3.37.97,5.14,1.1.46.03.6-.12.68-.59.19-1.17.47-2.32.71-3.47Z"/>
      <path class="cls-4" d="m9.94,19.12c.47-.95.91-1.93,1.41-2.86,1.16-2.15,2.72-3.95,4.85-5.16,1.62-.92,4.31-.4,5.73.81,2.23,1.91,1.97,4.99.69,7.12-1.14,1.89-2.72,3.19-4.91,3.66-.37.08-.39.21-.29.6.43,1.7,1.08,3.3,1.89,4.84.49.94.9,1.08,1.79.51.87-.55.84-.54,1.28.42.26.56.25.98-.27,1.38-1.03.79-2.1,1.55-3.33,1.97-1.83.62-2.98-.45-3.75-1.82-1.41-2.51-2.15-5.26-2.84-8.03-.15-.62.62-1.57,1.29-1.55,1.12.04,2.21-.07,2.96-.97,1.47-1.77,2.49-3.75,2.54-6.12.01-.52-.13-.7-.59-.37-1.19.87-2.2,1.92-3.16,3.05-1.43,1.68-2.45,3.63-3.65,5.46-.59.9-.87,1.94-1.33,2.9-1.06,2.21-1.95,4.49-2.61,6.85-.11.38-.29.51-.7.5-1.29-.03-2.59-.02-3.88,0-.43,0-.62.02-.47-.57,1.04-4.08,1.83-8.22,2.59-12.36.45-2.45.85-4.91.71-7.43-.06-1.07-.02-1.07,1.07-1.07,1.04,0,2.09.01,3.13-.01.35,0,.5.04.57.45.29,1.65.04,3.28-.22,4.9-.15.96-.4,1.91-.6,2.86.03.02.06.04.09.06Z"/>
      <path class="cls-4" d="m71.58,27.12c-.22,1.24-.34,2.46-.67,3.63-.19.68-.91,1.03-1.56,1.31-2.38,1.02-4.85,1.27-7.15.03-2.95-1.59-4.58-4.11-4.74-7.58-.12-2.64.66-4.93,2.25-6.93,1.87-2.35,4.21-4.01,7.4-3.9,2.67.09,5.22,2.23,5.71,4.64.33,1.6-.17,3.07-1.34,4.27-1.11,1.15-2.44,1.89-4.03,2.08-1.43.17-1.75-.1-1.91-1.51-.05-.47-.02-.96-.17-1.4-.19-.59.13-.7.55-.73,1.66-.12,2.74-1.09,3.64-2.36.06-.09.11-.2.16-.3.43-.88.18-1.32-.8-1.45-1.38-.18-2.64.15-3.68,1.05-1.66,1.44-2.87,3.22-3.45,5.34-.35,1.3-.46,2.66-.36,4.02.03.39.25.65.54.87,1.59,1.19,3.37,1.21,5.19.78,1.24-.3,2.42-.76,3.5-1.45.26-.16.51-.35.91-.39Z"/>
      <path class="cls-4" d="m40.35,32.04c-.38,1.94-.76,3.82-1.09,5.71-.06.33-.16.41-.46.4-1.02-.01-2.04-.02-3.06,0-.37,0-.49-.1-.4-.47.64-2.81.96-5.68,1.47-8.51.47-2.59.98-5.17,1.44-7.77.11-.64.12-1.3-.09-2.04,1.26,0,2.49,0,3.72,0,.23,0,.19.18.23.32.28.94,0,1.86-.08,2.89.83-.9,1.59-1.75,2.35-2.59.87-.95,1.74-1.08,2.87-.52,1.23.61,2.33,1.31,2.45,2.82.07.9.11,1.82,0,2.71-.21,1.59-.53,3.17-1.48,4.53-1.34,1.93-3.18,2.99-5.54,3-.78,0-1.56-.15-2.33-.51Z"/>
      <path class="cls-4" d="m119.99,30.57c.45-.16.78-.27,1.12-.39.32-.11.42-.08.29.3-.12.33-.13.7-.18,1.05-.02.18-.1.29-.27.35-1.06.36-2.13.67-3.26.68-1.13.01-1.86-.86-1.7-1.99.07-.49.14-.97.21-1.52-.32.14-.47.37-.63.6-.71.97-1.6,1.76-2.49,2.54-.47.41-1.02.5-1.62.2-.95-.46-1.69-1.18-2.42-1.9-.35-.35-.47-.83-.49-1.36-.09-2.25.15-4.44,1.25-6.45,1.12-2.04,2.88-3.16,5.21-3.45,2.06-.26,4.08-.07,6.11.26.55.09.56.33.5.71-.15.9-.37,1.8-.47,2.7-.25,2.26-.8,4.47-1.15,6.72-.04.28,0,.58,0,.95Z"/>
      <path class="cls-4" d="m30.68,28.96c-.88,1.09-1.9,2.01-2.87,2.99-.69.69-1.19.81-2.05.36-.96-.5-1.82-1.13-2.4-2.09-.44-.72-.34-1.53-.31-2.3.06-1.77.28-3.55,1.11-5.12,1.1-2.09,2.91-3.25,5.29-3.57,2.15-.29,4.26,0,6.38.29.29.04.43.12.36.48-.58,3.02-1.13,6.05-1.69,9.08,0,.04-.02.09-.01.13.1.41-.41.9,0,1.21.32.24.74-.13,1.1-.25.29-.1.41-.04.4.3-.05.91-.35,1.3-1.22,1.62-.74.27-1.52.39-2.29.46-1.58.16-2.4-.92-2.02-2.58.08-.34.15-.67.23-1.01Z"/>
      <path class="cls-4" d="m80.31,28.5c-.62.67-1.19,1.36-1.76,2.02-.63.73-1.33,1.47-2.24,1.91-.65.31-1.22-.04-1.75-.34-.55-.3-.98-.79-1.42-1.25-.4-.42-.31-.95-.22-1.42.52-2.83,1.16-5.64,1.58-8.49.05-.33.06-.69,0-1.02-.07-.45.06-.58.51-.57.95.03,1.91.03,2.86,0,.46-.01.56.17.6.6.12,1.51-.34,2.93-.61,4.38-.21,1.11-.5,2.21-.75,3.31-.04.16,0,.34,0,.64,1.21-1.21,2.17-2.47,3.02-3.81.93-1.46,1.56-3.05,2-4.71.08-.31.19-.41.49-.41,1.09,0,2.17,0,3.34,0-.49,2.6-.97,5.15-1.44,7.7-.17.92-.31,1.85-.47,2.77-.1.54.12.7.62.55.28-.08.55-.17.82-.26.12,1.19-.21,1.75-1.28,2.06-.88.26-1.75.48-2.7.24-1.13-.28-1.73-1.16-1.48-2.31.12-.54.16-1.09.29-1.64Z"/>
      <path class="cls-4" d="m97.93,25.37c-.06,1.85-.48,3.6-1.68,5.04-.89,1.07-2.06,1.73-3.46,2.03-2.1.44-3.82-.3-5.25-1.71-.75-.73-1.1-1.79-1.29-2.83-.4-2.11-.13-4.13.96-6.02,1.07-1.87,4.14-3.2,6.25-2.69,2.37.58,3.99,2.38,4.35,4.77.07.47.11.94.13,1.41Z"/>
      <path class="cls-4" d="m108.76,19.36c-.12.96-.25,1.86-.34,2.77-.04.46-.24.63-.7.62-.93-.02-1.86.04-2.79-.02-.57-.04-.71.26-.73.69-.08,1.62-.51,3.17-.81,4.75-.16.85.11,1.14.96.99.88-.16,1.77-.24,2.6-.6.23-.1.37-.14.28.25-.21.84-.32,1.71-.48,2.56-.07.37-.26.58-.68.68-1.26.3-2.52.8-3.82.35-1.82-.64-2.96-2.59-2.64-4.56.26-1.58.34-3.2.75-4.75.07-.27-.04-.37-.32-.36-.34.02-.68-.03-1.02.01-.43.05-.46-.2-.41-.49.15-.83.35-1.66.48-2.49.06-.37.25-.39.55-.39,1.5-.03,1.48-.03,1.7-1.51.1-.7.28-1.4.4-2.1.04-.27.17-.33.41-.33,1.11,0,2.22,0,3.33,0,.26,0,.31.05.26.35-.14.9-.35,1.79-.56,2.68-.2.85-.14.92.75.91.95,0,1.9,0,2.84,0Z"/>
      <path class="cls-4" d="m53.96,19.26c.43,0,.86.02,1.29,0,.54-.04.71.21.74.72.08,1.34-.17,2.64-.43,3.93-.4,1.99-.8,3.97-1.2,5.96-.09.45.09.62.55.54.23-.04.41-.17.62-.24.18-.06.32-.11.27.24-.25,1.51-.28,1.58-1.82,1.91-.72.15-1.43.28-2.19.18-1.33-.18-1.65-1.38-1.47-2.3.55-2.82,1.16-5.63,1.69-8.45.12-.64.06-1.31.04-1.96-.01-.38.09-.54.49-.52.47.03.95,0,1.43,0Z"/>
      <path class="cls-4" d="m56.81,15.29c.03.8-.16,1.53-.67,2.18-.59.75-1.31,1.03-2.21.79-.57-.15-.77-.63-.86-1.1-.2-1.07-.17-2.15.34-3.15.39-.77,1.29-1.12,2.09-.91.83.21,1.28.82,1.31,1.78,0,.14,0,.27,0,.41Z"/>
      <path class="cls-2" d="m126.53,25.64c-.05,1.15-.2,1.29-1.25,1.06-1.03-.23-2.09-.35-3.09-.74-.51-.2-.64-.47-.51-.98.18-.76.31-1.54.46-2.31.03-.16-.07-.39.17-.46.24-.07.39.1.52.25.78.9,1.73,1.58,2.73,2.2.19.12.38.24.59.33.31.14.46.35.39.65Z"/>
      <path class="cls-2" d="m62.45,26.44c.08-.53.16-1.07.26-1.6.03-.14.03-.36.24-.35.2,0,.21.22.25.35.07.26.15.54.11.8-.08.62.26.72.76.81,1.26.22,2.51.5,3.8.14.13-.04.34-.06.39.16.04.17-.09.24-.21.3-1.53.82-3.12,1.23-4.84.71-.64-.19-.86-.67-.76-1.32Z"/>
      <path class="cls-2" d="m19.21,24.85c-.06-.34.07-.57.39-.76.55-.32,1.06-.69,1.58-1.05.16-.11.32-.22.49-.11.19.12.13.33.05.49-.41.94-.57,1.95-.8,2.93-.09.38-.26.71-.67.75-.45.04-.48-.4-.62-.69-.24-.49-.42-1-.43-1.57Z"/>
      <path class="cls-3" d="m105.63,24.94c.63-.13.71.2.62.68-.08.44-.16.88-.25,1.32-.06.31-1,.76-1.29.63-.2-.09-.15-.27-.13-.4.12-.66.24-1.32.39-1.98.09-.4.45-.18.66-.25Z"/>
      <path class="cls-1" d="m133.88,26.46c-.01.93-.45,1.45-1.38,1.61-1.14.21-1.15.2-.94-.96.12-.65.28-1.3.4-1.95.03-.15.05-.25.23-.26.7-.07,1.7.84,1.69,1.56Z"/>
      <path class="cls-1" d="m131.18,15.54c-.18.9-.32,1.68-.49,2.46-.04.21-.16.29-.37.15-.52-.34-1.09-.62-1.57-1.01-.44-.36-.21-1.33.35-1.5.55-.17,1.12-.24,1.69-.35.29-.05.43.06.39.26Z"/>
      <path class="cls-1" d="m46.08,23.31c-.1,1.28-.36,2.47-1.04,3.53-.31.48-.54,1.01-.97,1.43-.76.75-1.64.94-2.64.89-.44-.02-.49-.21-.35-.62.53-1.51,1.49-2.74,2.51-3.93.51-.59,1.05-1.17,1.63-1.7.19-.17.44-.53.73-.38.29.15.02.54.13.77Z"/>
      <path class="cls-1" d="m112.28,29.24c.33-2.16.29-4.27,1.93-5.83.78-.75,1.77-.88,2.79-.91.2,0,.29.04.2.28-.49,1.38-1.17,2.63-2.12,3.75-.8.94-1.61,1.87-2.8,2.72Z"/>
      <path class="cls-1" d="m31.3,22.49c.56-.11.52.16.31.63-.96,2.14-2.39,3.93-4.05,5.55-.09.09-.21.18-.32.23-.13.06-.2.28-.39.17-.19-.12-.13-.31-.1-.49.2-1.21.56-2.38.88-3.56.49-1.82,2.06-2.44,3.67-2.54Z"/>
      <path class="cls-1" d="m89.76,27.73c.17-1.53.47-3.36,1.72-4.9.68-.83,1.73-.82,2.53-.48.23.1.25.28.25.5,0,2.05-.42,3.98-1.64,5.68-.28.39-.68.67-1.11.85-.95.4-1.75-.21-1.75-1.65Z"/>
    </g>
  </g>
</svg>