<?xml version="1.0" encoding="UTF-8"?>
<svg id="Capa_2" data-name="Capa 2" xmlns="http://www.w3.org/2000/svg" viewBox="0 0 84.7 49.92">
  <defs>
    <style>
      .cls-1 {
        fill: #ce1d11;
      }

      .cls-1, .cls-2 {
        stroke-width: 0px;
      }

      .cls-2 {
        fill: #e27972;
      }
    </style>
  </defs>
  <g id="Capa_1-2" data-name="Capa 1">
    <g>
      <path class="cls-1" d="m0,36.7c.3-.3.26-.72.35-1.08,1.54-5.82,7.66-9.46,13.54-8.06.63.15.77.34.44.93-.99,1.76-1.95,3.55-2.9,5.33-.2.38-.44.58-.92.54-2.43-.2-4.36.69-5.42,2.91-1.21,2.53-.93,4.99.9,7.18,2.68,3.21,8.65,3.38,10.9-1.47,1.46-3.15,1.46-6.38.45-9.63-.89-2.84-2.08-5.6-2.81-8.48-1.99-7.82-.39-14.85,5.25-20.76,2.05-2.15,4.62-3.47,7.59-3.94.12-.02.22-.04.25-.17,1.52,0,3.05,0,4.57,0,1.26.33,2.52.65,3.78,1.01,1.11.32,1.11.34.33,1.23-1.2,1.35-2.31,2.77-3.23,4.33-.37.62-.84.52-1.36.51-.61-.01-.4-.52-.48-.81-.25-.89-.81-1.4-1.7-1.55-1.23-.21-2.36.14-3.4.75-2.92,1.71-4.41,4.34-4.77,7.65-.34,3.1.66,5.94,1.77,8.76,1.14,2.9,2.38,5.78,3.03,8.84.67,3.14.62,6.29-.34,9.35-1.83,5.86-6.21,8.66-11.99,9.66-3.58.62-6.84-.13-9.68-2.44-2.18-1.77-3.57-4.03-3.99-6.84-.16-.27.05-.6-.15-.87v-2.87Z"/>
      <path class="cls-2" d="m0,39.57c.23.26.18.56.15.87-.05,0-.1-.02-.15-.02v-.85Z"/>
      <path class="cls-1" d="m79.97,14.13c-2.3-.25-4.3.6-6.03,1.99-4.04,3.25-6.57,7.43-7.4,12.58-.05.3-.1.6-.32.85-1.17,1.3-2.52,2.34-4.22,2.85-1.9.57-3.07-.16-3.43-2.11-.33-1.76,0-3.49.4-5.18.7-2.89,1.84-5.57,4.18-7.55,1.83-1.55,3.14-1.11,3.51,1.24.15.94.63.87,1.25.86.31,0,.43-.23.59-.42.65-.78,1.27-1.58,1.96-2.33.41-.44.41-.8.08-1.26-.86-1.21-2.08-1.62-3.48-1.49-3.13.3-5.65,1.86-7.75,4.08-2.73,2.89-4.35,6.4-5.44,10.17-.12.43-.21.87-.54,1.22-1.13,1.22-2.42,2.2-4.01,2.72-2.07.68-3.35-.15-3.63-2.31-.24-1.88.08-3.71.58-5.5.74-2.7,1.88-5.21,4.1-7.04,1.81-1.49,3.12-1.02,3.44,1.28.13.94.61.89,1.26.86.34-.02.47-.28.65-.49.66-.77,1.29-1.56,1.97-2.32.35-.39.35-.72.07-1.13-.7-.99-1.67-1.5-2.87-1.53-2.52-.05-4.69.93-6.6,2.45-3.18,2.53-5.11,5.95-6.58,9.66-1.18,2.95-3.57,4.56-6.4,5.57-1.45.51-2.67-.29-3.16-1.76-.23-.71-.19-1.44-.22-2.17-.03-.75.3-.98,1.03-1.04,2.5-.23,4.88-.92,6.96-2.37,2.38-1.66,3.84-3.87,3.77-6.87-.05-2.2-1.69-3.76-3.87-3.74-2.14.03-3.81,1.12-5.31,2.49-2.95,2.7-4.95,6.02-6.29,9.77-.81,2.27-1.1,4.6-.79,6.98.31,2.43,1.75,3.54,4.15,3.43,1.33-.06,2.43-.66,3.51-1.34,1.91-1.2,3.41-2.85,4.82-4.58.2-.24.34-.57.74-.72,0,1.05-.05,2.03.01,3,.14,2.26,1.73,3.79,3.99,3.92,1.16.07,2.24-.21,3.27-.7,2.06-.99,3.56-2.64,5.06-4.29.15-.17.21-.47.57-.45,0,.38-.01.75,0,1.11.12,3.2,2.36,4.92,5.5,4.22,1.46-.33,2.73-1.04,3.86-2,1.22-1.03,2.32-2.2,3.43-3.51.11.93.27,1.72.57,2.47.69,1.69,1.86,2.85,3.74,3,2.15.17,4.14-.38,5.92-1.61,1.57-1.09,2.87-2.46,3.97-4.01,2.5-3.51,4.25-7.29,4.15-11.72-.07-2.93-1.81-4.89-4.72-5.21Zm-43.05,2.86c.69-.61,1.46-1.13,2.43-.64.64.32.8,1.28.51,2.46-.41,1.63-1.41,2.87-2.73,3.84-1.32.97-2.81,1.59-4.6,1.98.9-3.01,2.11-5.63,4.39-7.64Zm43.71,5.17c-.82,2.58-1.79,5.09-3.41,7.29-.65.89-1.39,1.71-2.33,2.3-.95.6-1.99,1.15-3.07.49-1.09-.66-1.2-1.86-1.12-3,.17-2.54,1.18-4.83,2.25-7.1.72-1.53,1.55-2.99,2.71-4.25.61-.67,1.3-1.24,2.17-1.56,1.68-.62,3.01.16,3.26,1.92.05.33.04.67.04.8,0,1.21-.2,2.17-.5,3.11Z"/>
    </g>
  </g>
</svg>