<?xml version="1.0" encoding="UTF-8"?>
<svg id="Capa_2" data-name="Capa 2" xmlns="http://www.w3.org/2000/svg" viewBox="0 0 105.01 47">
  <defs>
    <style>
      .cls-1 {
        fill: #ce1d11;
        stroke-width: 0px;
      }
    </style>
  </defs>
  <g id="Capa_1-2" data-name="Capa 1">
    <g>
      <path class="cls-1" d="m104.96,40.02c.02,2.33.03,4.65.05,6.98H11.41c.02-2.33.03-4.65.05-6.98.51-.33,1.09-.17,1.63-.17,30.08,0,60.15,0,90.23,0,.54,0,1.12-.16,1.63.17Z"/>
      <path class="cls-1" d="m0,4.33c3.35-.91,6.84-.83,10.25-1.33.61-.09,1.23-.09,1.83-.2.35-.06.85.05.93-.48.06-.39.05-.8-.45-.94-.38-.11-.57-.36-.48-.74.11-.48.56-.51.93-.55C13.67.03,14.35,0,15.01,0c.87,0,1.51.24.54,1.1-.4.35-.37.66-.22,1.01.21.48.68.28,1.04.25,3.89-.38,7.79-.69,11.66-1.2,3.24-.43,6.24-.21,9.22,1.36,3.44,1.81,7.08,3.25,10.62,4.88.69.31,1.67.64,1.28,1.62-.44,1.09-1.39.62-2.15.28-2.69-1.21-5.45-2.3-8.04-3.7-3.57-1.92-7.22-2.22-11.17-1.57-7.1,1.17-14.24,2.12-21.36,3.13-2.31.32-4.57.24-6.42-1.49v-1.33Z"/>
      <path class="cls-1" d="m36.18,20.03c0,2.81,0,2.8-2.82,3.33-6.72,1.28-13.45,2.55-20.16,3.91-1.41.29-1.95.07-1.98-1.46-.03-1.82-.27-3.64-.5-5.46-.12-.97.26-1.23,1.16-1.31,6.55-.55,13.1-1.14,19.65-1.72,1.05-.09,2.11-.17,3.16-.33,1.13-.17,1.67.15,1.5,1.38-.08.54-.01,1.11-.01,1.66Z"/>
      <path class="cls-1" d="m17.27,8.21c2.39.12,4.79.27,7.18.35.74.02,1.09.19,1.1,1.01.02,1.88.11,3.76.23,5.64.05.85-.22,1.14-1.1,1.19-4.28.26-8.57.58-12.84.92-.98.08-1.49-.03-1.53-1.23-.08-2.21-.29-4.43-.63-6.62-.22-1.45.34-1.6,1.58-1.53,2,.11,4.01.03,6.01.03,0,.08,0,.16,0,.24Z"/>
      <path class="cls-1" d="m36.61,9.38c2.62,0,5.24.02,7.86-.01.79-.01,1.14.21,1.01,1.03-.08.49-.06.99-.1,1.49-.24,3.12-.24,3.15-3.32,3.36-4.28.3-8.58.5-12.86.85-1.05.09-1.28-.3-1.29-1.15-.02-1.78,0-3.55-.08-5.33-.04-.89.35-.97,1.09-.92,2.56.16,5.12.25,7.69.37,0,.1,0,.21,0,.31Z"/>
      <path class="cls-1" d="m76.35,17.39c-8.77,0-17.54,0-26.31,0-.5,0-1-.02-1.51-.04-.48-.02-.69-.36-.72-.77-.03-.5.22-.86.76-.91.39-.04.78-.02,1.17-.02,17.76,0,35.52,0,53.28,0,.45,0,.9-.02,1.34.04.44.07.65.39.65.84,0,.46-.24.75-.68.8-.5.06-1,.05-1.5.05-8.82,0-17.65,0-26.47,0Z"/>
      <path class="cls-1" d="m45.24,33.06c0-.82.05-1.64-.01-2.45-.07-.92.09-1.37,1.22-1.38,1.16,0,1.23.49,1.21,1.39-.05,1.77.02,3.55-.04,5.32-.02.52.41,1.38-.47,1.51-.81.12-1.78.4-2.41-.59-.68-1.08-1.44-2.11-2.26-3.3-.47,1-.27,1.93-.23,2.79.04,1.02-.41,1.2-1.29,1.18-.81-.02-1.39-.04-1.34-1.13.08-1.83-.02-3.66.05-5.49.02-.55-.52-1.5.57-1.59.88-.08,1.88-.38,2.52.73.64,1.09,1.42,2.1,2.15,3.14.11-.04.22-.08.33-.12Z"/>
      <path class="cls-1" d="m58.87,33.36c0-.89.06-1.78-.02-2.66-.09-1.01.18-1.5,1.32-1.52,1.18-.02,1.43.54,1.28,1.51-.17,1.1.28,1.38,1.38,1.41,1.2.03,1.46-.47,1.3-1.46-.18-1.11.32-1.41,1.38-1.43,1.15-.02,1.37.46,1.33,1.47-.07,1.89-.07,3.78,0,5.66.04.96-.39,1.11-1.19,1.06-.71-.05-1.54.16-1.51-.98,0-.33-.05-.67,0-1,.17-1.09-.36-1.28-1.33-1.27-1,0-1.36.29-1.4,1.32-.03.67.77,1.83-.91,1.96-1.33.1-1.82-.23-1.65-1.57.1-.82.02-1.66.02-2.5Z"/>
      <path class="cls-1" d="m95.9,33.25c.06-1.26-.36-2.95.3-3.68.78-.87,2.52-.2,3.83-.28.67-.04,1.34.01,2.01-.01.6-.02.91.15.92.83.02.74-.26.99-.97.96-.89-.04-1.79,0-2.68,0-.38,0-.64.09-.67.54-.03.5.2.7.69.69.78-.01,1.57.03,2.35-.01.74-.04.95.27.95.98,0,.76-.44.77-.98.76-.45,0-.92-.09-1.33.02-.58.15-1.63-.6-1.66.67-.03,1.43,1.12.63,1.74.77.53.12,1.11.06,1.67.02.75-.06.98.26.94.97-.03.59.01,1.09-.84,1.07-1.73-.04-3.46-.03-5.2-.01-.77,0-1.08-.3-1.04-1.09.06-1.05.02-2.11.02-3.16-.02,0-.04,0-.05,0Z"/>
      <path class="cls-1" d="m78.11,32.37c0-.55.04-1.11,0-1.66-.08-.95.05-1.48,1.28-1.49,1.23,0,1.37.51,1.32,1.48-.05,1.1-.02,2.21,0,3.32.02.87.36,1.55,1.34,1.56,1,.01,1.34-.72,1.39-1.55.07-1.27.1-2.55.02-3.82-.07-1.08.6-.97,1.28-.95.65.02,1.39-.19,1.34.92-.06,1.44.06,2.88-.06,4.31-.19,2.21-1.68,3.24-4.28,3.11-2.45-.12-3.53-1.14-3.62-3.42-.02-.61,0-1.22,0-1.83Z"/>
      <path class="cls-1" d="m22.42,33.43q0-4.16,3.98-4.16c.61,0,1.23.02,1.84,0,.69-.03,1.17.05,1.15.95-.02.84-.49.85-1.09.84-.78-.02-1.56,0-2.34,0-.4,0-.8-.01-.83.55-.04.67.41.67.88.67.72,0,1.45.03,2.17,0,.67-.03.86.27.87.89,0,.66-.25.88-.89.85-.72-.04-1.45,0-2.17,0-.47,0-.87,0-.88.67-.01.69.32.85.92.83.67-.03,1.34-.02,2.01,0,.67.02,1.46-.25,1.48.97.02,1.33-.85,1.02-1.57,1.04-.5,0-1-.08-1.5-.1-1.27-.05-3,.4-3.7-.25-.92-.85-.15-2.61-.31-3.72Z"/>
      <path class="cls-1" d="m30.47,33.31c-.08-1.77.54-3.15,2.24-3.89,1.65-.72,3.79-.41,4.84.7.39.41,1.11,1.02.62,1.48-.53.5-1.54.88-2.24.19-.91-.91-1.71-1.01-2.49,0-.67.86-.44,3.05.33,3.54.86.54,1.68.35,2.12-.53.69-1.39,1.62-.44,2.2-.13.93.49.04,1.14-.26,1.59-.9,1.31-2.96,1.74-4.87,1.11-1.67-.55-2.49-1.88-2.5-4.05Z"/>
      <path class="cls-1" d="m38.07,19.51q.11-2.77,2.88-3.08c.11-.01.22-.03.33-.04,4.3-.4,4.27-.41,3.75,3.93-.08.7-.33.93-.99,1.03-1.48.24-2.97.5-4.42.87-1.29.32-1.9.03-1.67-1.38.07-.44.07-.88.11-1.32Z"/>
      <path class="cls-1" d="m17.46,29.11c.89.05,1.78.16,2.67.14.8-.02,1.21.12,1.22,1.07,0,1.01-.51,1.11-1.25.99-1.17-.19-1.4.37-1.32,1.39.08.99-.08,2.01.04,2.99.17,1.44-.43,1.83-1.78,1.72-.72-.06-.97-.25-.94-.97.05-1.27-.04-2.55.03-3.82.06-.96-.14-1.46-1.25-1.31-.67.09-1.42.26-1.44-.96-.02-1.13.63-1.11,1.36-1.13.89-.03,1.78,0,2.67,0v-.1Z"/>
      <path class="cls-1" d="m80.8,22.72c0-.55,0-1.09,0-1.64-.01-.63-.09-1.22.9-1.15.81.06,1.19.27,1.14,1.17-.08,1.33,0,2.66-.03,4-.01.44.3,1.15-.43,1.24-.66.08-1.44.36-1.95-.47-.49-.8-1.08-1.54-1.68-2.39-.42.54-.21,1.1-.22,1.6-.01.75.1,1.38-1.06,1.36-1.06-.02-.98-.58-.97-1.27.02-1.33-.02-2.67.02-4,.01-.42-.33-1.11.45-1.19.63-.06,1.36-.26,1.83.44.55.82,1.12,1.63,1.68,2.44.11-.04.22-.09.32-.13Z"/>
      <path class="cls-1" d="m104.96,40.02c-31.17,0-62.33,0-93.5,0,.35-.69.99-.33,1.47-.33,30.18-.02,60.37-.02,90.55,0,.49,0,1.12-.36,1.47.33Z"/>
      <path class="cls-1" d="m70.06,23.16q0-3.27,3.34-3.22c.22,0,.46-.04.67.02.49.16,1.36-.35,1.35.72-.01,1.06-.85.58-1.36.7-.05.01-.11-.01-.17,0-.59.16-1.69-.38-1.7.42,0,1.04,1.13.3,1.72.51.44.15,1.2-.35,1.23.63.04,1.07-.79.67-1.31.76-.33.06-.67.01-1,.01-.35,0-.69.03-.73.48-.05.56.32.62.75.62.62,0,1.23.02,1.85,0,.56-.02.79.21.79.78s-.15.83-.75.79c-.5-.03-1.01,0-1.51,0q-3.18,0-3.18-3.22Z"/>
      <path class="cls-1" d="m48.42,20.06c3.59-.76,2.11,2.67,3.61,3.66.63-.66.63-1.79.95-2.77.25-.76.61-1.03,1.42-1.03.9,0,1.04.25.71,1.05-.61,1.48-1.19,2.97-1.67,4.5-.26.82-.75.95-1.49.94-.71,0-1.24-.06-1.51-.89-.6-1.82-1.32-3.6-2.01-5.46Z"/>
      <path class="cls-1" d="m62.61,23.8c.3-.99.63-1.96.9-2.96.19-.71.58-.95,1.32-.92.79.04,1.15.16.78,1.05-.61,1.48-1.2,2.98-1.68,4.51-.26.84-.77.92-1.5.92-.73,0-1.24-.08-1.5-.92-.45-1.42-1.08-2.78-1.57-4.19-.14-.41-.85-1.07.1-1.3.69-.17,1.58-.34,1.87.78.26,1.01.61,1.99.92,2.99.12.01.24.03.36.04Z"/>
      <path class="cls-1" d="m66.57,23.05c0-.72.04-1.44-.01-2.15-.06-.87.4-.99,1.12-.98.76,0,1.1.23,1.07,1.05-.06,1.49-.06,2.99,0,4.48.03.89-.43.95-1.13.97-.79.02-1.11-.25-1.06-1.04.05-.77.01-1.55.01-2.32Z"/>
      <path class="cls-1" d="m58.1,23.21c0,.72-.04,1.44.01,2.15.06.77-.19,1.07-1.01,1.06-.81,0-1.06-.28-1.04-1.06.05-1.49.06-2.98,0-4.46-.03-.89.43-.94,1.13-.97.76-.03.96.29.92.98-.04.77,0,1.54,0,2.31Z"/>
      <path class="cls-1" d="m92.61,32.28c-.53-.11-1.08-.19-1.6-.35-.4-.12-.93-.15-.98-.71-.01-.14.22-.37.4-.46.44-.22.86-.1,1.21.23.3.28.43.79.98.75.54-.38,1.67.51,1.75-.6.08-.98-.75-1.54-1.67-1.83-1.1-.34-2.19-.33-3.3-.02-1.07.3-1.76.94-1.86,2.07-.1,1.1.5,1.8,1.44,2.2.77.32,1.6.49,2.38.78.46.17,1.04.41.67,1.05-.31.54-.86.66-1.46.39-.38-.18-.51-.57-.76-.84-.68-.71-1.72-.51-2.3-.16-.69.42,0,1.19.37,1.66.93,1.2,2.32,1.22,3.66,1.15,1.84-.1,2.94-.98,3.18-2.39.3-1.69-.78-2.4-2.11-2.93Z"/>
      <path class="cls-1" d="m101.34,22.28c-.11,0-.24.04-.32,0-.5-.27-1.26-.02-1.51-.74-.03-.08.16-.29.29-.35.88-.42,1.05.5,1.53.84.51-.25,1.48.18,1.53-.6.05-.84-.71-1.28-1.55-1.47-.84-.19-1.67-.15-2.48.08-.77.22-1.21.75-1.3,1.55-.09.82.28,1.4,1.01,1.73.61.27,1.25.45,1.89.64.43.13.76.35.56.81-.18.41-.62.4-1.01.29-.35-.1-.48-.43-.7-.67-.56-.61-1.4-.36-1.8-.05-.49.38.03,1.06.41,1.41,1.11,1.03,2.47.89,3.78.55.96-.25,1.46-.97,1.5-1.97.05-1.26-.85-1.69-1.83-2.04Z"/>
      <path class="cls-1" d="m79.33,43.54c.7-.3,1.42-.41,1.99.06.4.32.27.96.11,1.42-.29.83-1.07.62-1.71.65-.28.01-.56.03-.84,0-.68-.07-1.62.31-1.91-.58-.31-.93-.38-2.02.05-2.92.41-.86,1.4-.51,2.13-.47.76.04,2.15-.46,2.16.42,0,.92-1.23-.04-1.9.2-.52.19-1.35-.28-1.51.6-.11.62-.37,1.48.22,1.87.69.46,1.62.32,2.41.07.39-.13.32-.53-.03-.77-.33-.23-.92.13-1.17-.55Z"/>
      <path class="cls-1" d="m38.92,42.33c-.61.75-.17.96.54.99.56.03,1.12.01,1.68.01.75,0,1.13.38,1.13,1.13,0,.73-.3,1.17-1.07,1.19-.84.01-1.68,0-2.52,0-.53,0-.97-.32-.85-.79.19-.76.62-.32.97-.03.08.07.2.12.31.12.66,0,1.34.22,1.95-.17.09-.06.14-.34.08-.43-.44-.63-1.12-.32-1.69-.34-.9-.02-1.51-.19-1.54-1.27-.04-1.27.83-1.06,1.59-1.08.39,0,.79-.03,1.17,0,.45.05,1.26-.21,1.15.52-.13.83-.81-.05-1.22.13-.56.41-1.12.41-1.68,0Z"/>
      <path class="cls-1" d="m89.3,43.23c-.02.49-.03.91-.06,1.33-.03.41.12,1.04-.53.99-.61-.04-.42-.66-.46-1.07-.01-.11-.02-.22,0-.33.14-.78-.45-1.91.35-2.3.88-.43,1.27.8,1.92,1.24.49.34.97.69,1.51,1.08.52-.75-.06-1.68.7-2.59.34,1.33.23,2.41.17,3.46-.05.79-.54.51-.9.18-.81-.73-1.47-1.63-2.69-1.99Z"/>
      <path class="cls-1" d="m28.77,41.67c.46,0,.74,0,1.02,0,.51,0,1.08-.02,1.28.54.2.57-.06.87-.68.62-.2-.08-.35-.38-.52-.38-.83.01-1.98-.73-2.3.68-.13.56-.41,1.48.4,1.75.67.22,1.54.46,2.15-.26.21-.25.3-.65.72-.38.16.1.27.35.3.55.05.37-.16.71-.5.75-1.15.14-2.48.55-3.38-.18-.91-.74-.51-2.11-.31-3.14.22-1.09,1.36-.25,1.83-.56Z"/>
      <path class="cls-1" d="m102.97,45.54c-1.44.07-2.98.67-3.79-.29-.62-.74-.69-2.53.07-3.27.85-.84,2.32-.29,3.99-.2-1.02.72-1.7.45-2.32.55-.44.07-1.17-.24-1.16.54.01.63.67.38,1.07.47.2.04.4.1.62.16-.05.17-.05.29-.12.36-.45.42-1.66-.27-1.52.73.1.77,1.14.3,1.75.42.4.08.89-.18,1.41.54Z"/>
      <path class="cls-1" d="m57.99,41.81c.16.09.24.11.24.14.16,1.18.66,2.72-.21,3.39-.53.4-1.65-1.11-2.53-1.73-.31-.21-.57-.49-.91-.79-.51.87.07,1.88-.66,2.97-.39-1.38-.27-2.46-.2-3.51.05-.78.62-.68,1.07-.31.55.46,1.03,1.01,1.56,1.5.31.28.55.84,1.05.66.53-.19.24-.77.3-1.18.06-.37-.09-.78.29-1.14Z"/>
      <path class="cls-1" d="m68.57,41.56c-.94,1.02-1.71.67-2.37.77-.4.06-1.02-.15-.99.55.02.55.56.41.92.45.27.03.56-.02.75.25-.03.09-.03.22-.1.28-.45.42-1.66-.28-1.52.73.11.77,1.14.29,1.75.42.4.08.89-.18,1.31.43-1.28.35-2.76.68-3.6-.07-.79-.7-.69-2.48-.1-3.27.79-1.06,2.32-.2,3.95-.53Z"/>
      <path class="cls-1" d="m87.01,45.15c-1.24.51-2.72,1.02-3.59.14-.67-.69-.62-2.39-.05-3.15.81-1.06,2.33-.34,3.71-.42-.56.87-1.3.51-1.9.61-.45.08-1.2-.23-1.19.51,0,.73.76.39,1.2.5.14.04.28.11.41.16-.21.95-1.82.09-1.58,1.02.26.99,1.45.3,2.21.48.25.06.51.1.77.15Z"/>
      <path class="cls-1" d="m32.07,45.55c.23-1.35.87-2.37,1.56-3.36.53-.76,1.11-.67,1.55.09.58.99,1.12,2.01,1.94,3.52-1.92-1.13-3.49-1.9-5.06-.26Z"/>
      <path class="cls-1" d="m48.25,46.03c-1.84-1.75-3.37-1.92-5.11,0,.27-1.89,1.33-2.91,1.97-4.1.25-.47.91-.35,1.22.2.62,1.1,1.45,2.09,1.92,3.91Z"/>
      <path class="cls-1" d="m18.78,41.56c1.45,1.11-.57,3.25,1.97,3.47,2.9.25,1.12-2.26,2.17-3.36.27,1.4.74,2.84-.19,3.68-.87.77-2.57.72-3.46.05-1.08-.82-.31-2.3-.48-3.83Z"/>
      <path class="cls-1" d="m73.62,45.4c-1.36.41-2.4.23-3.42.24-.46,0-.71-.26-.73-.72-.01-.39-.08-.79,0-1.16.14-.68-.47-1.89.54-1.9.83-.01.44,1.19.42,1.84-.02,1.04.39,1.39,1.38,1.31.48-.04,1-.11,1.81.39Z"/>
      <path class="cls-1" d="m59.15,42.05c1.51-.51,2.89-.39,4.32-.31-.2,1.03-1.79.11-1.76,1.4.02.77.19,1.59-.29,2.54-.91-1.25.75-3.85-2.28-3.64Z"/>
      <path class="cls-1" d="m93.93,41.75h4.12c-.25,1-1.81.1-1.77,1.41.02.75.19,1.54-.28,2.5-.95-1.21.73-3.84-2.07-3.91Z"/>
      <path class="cls-1" d="m17.81,41.83c-2.79.08-1.19,2.55-2.04,3.81-.87-1.24.74-3.73-2.05-3.81h4.09Z"/>
      <path class="cls-1" d="m74.81,41.9c.5,1.16.39,2.35.02,3.54-.44-1.17-.44-2.34-.02-3.54Z"/>
      <path class="cls-1" d="m51.69,41.91c.44,1.18.28,2.35.04,3.53-.5-1.17-.48-2.35-.04-3.53Z"/>
      <path class="cls-1" d="m38.92,42.33c.56,0,1.12,0,1.68,0-.56,1.07-1.12,1.07-1.68,0Z"/>
      <path class="cls-1" d="m72.56,29.05c-2.71,0-4.39,1.55-4.45,4.12-.06,2.74,1.54,4.42,4.26,4.44,2.77.03,4.35-1.44,4.4-4.09.05-2.79-1.53-4.47-4.21-4.47Zm-.14,6.54c-1.47-.06-1.64-1.24-1.62-2.41.01-1.09.4-2.09,1.62-2.08,1.41.01,1.72,1.13,1.74,2.38-.12,1.05-.35,2.17-1.74,2.11Z"/>
      <path class="cls-1" d="m53.26,29.05c-2.72.03-4.27,1.56-4.28,4.23-.01,2.8,1.51,4.33,4.32,4.33,2.68,0,4.29-1.56,4.35-4.21.05-2.65-1.69-4.38-4.38-4.36Zm.08,6.53c-1.53.05-1.7-1.11-1.73-2.28-.04-1.17.37-2.19,1.67-2.21,1.36-.02,1.55,1.15,1.72,2.13-.13,1.16-.25,2.3-1.65,2.35Z"/>
      <path class="cls-1" d="m89.98,22.81c-.02-1.29-.49-2.34-1.79-2.69-1.24-.33-2.71-.56-3.78-.02-.95.48-.2,1.92-.38,2.92,0,.05,0,.11,0,.17,0,.78,0,1.55,0,2.33,0,.4,0,.85.54.84,1.28,0,2.59.24,3.82-.22,1.55-.58,1.61-1.95,1.58-3.33Zm-3.13,1.94c-1.3-.11-.55-1.19-.63-1.81-.06-.46-.43-1.36.59-1.35,1.06.01,1.15.84,1.1,1.69.04.76-.07,1.56-1.05,1.48Z"/>
      <path class="cls-1" d="m94.89,20.51c-.26-.71-.87-.57-1.4-.56-.53,0-1.08-.14-1.35.62-.67,1.9-1.41,3.77-2.26,6.01,1.04-.46,1.95.34,2.55-.95.29-.63,1.84-.55,2.06-.09.62,1.29,1.53.75,2.57.82-.76-2.04-1.46-3.94-2.16-5.84Zm-1.04,3.33c-.14.23-.58.22-.73.03-.45-.6.18-1.07.24-1.88.5.74.84,1.26.49,1.86Z"/>
      <path class="cls-1" d="m34.3,42.36c.35.62.91.98.52,1.54-.11.15-.73.17-.9,0-.6-.54.04-.91.38-1.55Z"/>
      <path class="cls-1" d="m44.69,44.18c.34-.87.3-1.62,1.07-1.61.22,0,.68.76.59,1.05-.27.88-.97.12-1.66.56Z"/>
    </g>
  </g>
</svg>