<?xml version="1.0" encoding="UTF-8"?>
<svg id="Capa_2" data-name="Capa 2" xmlns="http://www.w3.org/2000/svg" viewBox="0 0 100 110">
  <defs>
    <style>
      .cls-1 {
        fill: #df0e0d;
      }

      .cls-1, .cls-2, .cls-3 {
        stroke-width: 0px;
      }

      .cls-2 {
        fill: #fff;
      }

      .cls-3 {
        fill: #e30304;
      }
    </style>
  </defs>
  <g id="Logo">
    <g>
      <g>
        <path class="cls-2" d="m97.31,50.11c-9.02,37.51-44.4,57.57-47.17,59.06-.09.05-.2.04-.28,0C-3.06,75.65.04,35.77,1.35,25.36c.02-.12.5-.15.64-.13,14.96,1.29,27.46-5.19,30.78-7.18,4.22-2.53,14.42-10.71,17.01-17.11.07-.18.38-.18.46,0,2.41,5.48,10.92,12.88,14.84,15.49,3.29,2.18,16.62,9.01,33.14,8.68.14,0,.24.16.26.29,1.31,8.69.72,16.85-1.17,24.72Z"/>
        <path class="cls-1" d="m50.02,110c-.2,0-.41-.06-.58-.17-12.29-7.78-22.48-16.51-30.28-25.93-6.49-7.84-11.42-16.26-14.64-25.03C.47,47.85-.87,36.55.55,25.26c.09-.7.87-.88,1.51-.83,15.4,1.33,27.94-5.66,30.29-7.07,3.85-2.31,14.12-10.4,16.68-16.72.15-.38.53-.63.96-.64,0,0,.01,0,.02,0,.43,0,.81.24.97.61,2.27,5.16,10.55,12.49,14.55,15.15,3.66,2.42,16.3,8.55,31.54,8.55.38,0,.76,0,1.14-.01,0,0,.01,0,.02,0,.58,0,.97.48,1.05.95h0c1.25,8.32.86,16.51-1.19,25.04-2.09,8.67-5.75,17.11-10.89,25.09-4.16,6.45-9.29,12.61-15.26,18.34-10.63,10.19-20.34,15.57-21.41,16.15-.16.09-.34.13-.52.13ZM2.08,26.03C-.05,44.33,3.58,78.78,50.03,108.32c3.69-2.06,37.72-21.91,46.49-58.4h0c1.97-8.19,2.37-16.05,1.22-24.02-7.04.08-14.21-1.07-21.31-3.45-5.49-1.83-9.79-4.04-11.8-5.38-3.66-2.43-11.57-9.22-14.6-14.76-1.71,3.35-5,6.79-7.59,9.2-3.47,3.23-7.15,5.94-9.25,7.2-2.22,1.33-13.23,7.47-27.24,7.47-1.27,0-2.56-.05-3.87-.16Z"/>
      </g>
      <path class="cls-1" d="m33.11,17.8v79.91c-4.14-3.49-7.76-7.01-10.93-10.53V22.72c3.88-1.25,7.55-2.91,10.93-4.93Z"/>
      <path class="cls-3" d="m55.34,7.64v98.4c-1.61.98-3.17,1.86-4.67,2.63-.09.05-.2.04-.29,0-2.1-1.24-4.12-2.5-6.05-3.76V9.3c2.28-2.42,4.28-5.06,5.96-7.87.1-.17.36-.17.47,0,1.34,2.18,2.87,4.26,4.57,6.2Z"/>
      <path class="cls-1" d="m76.97,22.1v65.55c-3.57,3.73-7.29,7.1-10.98,10.05V16.79c3.38,2.14,7.06,3.93,10.98,5.31Z"/>
      <path class="cls-1" d="m98.87,25.09l-.95,24.09c-2.02,8.59-5.64,16.59-10.13,23.79V24.43c2.4.36,4.87.54,7.38.54.92,0,2.79.17,3.7.12Z"/>
      <path class="cls-1" d="m11.24,25.31v46.73C2.58,57.41.66,43.87.66,34.76c0-3.9.36-6.97.69-8.98.02-.12.18-.2.32-.2,1.15.08,7.56-.04,9.58-.28Z"/>
      <g>
        <path class="cls-2" d="m97.55,49.07L8.19,66.33c-3.21-7.53-4.91-14.6-6.49-21.65l96.9-18.47c.8,11.56.57,14.37-1.05,22.86Z"/>
        <path class="cls-1" d="m7.98,66.88l-.17-.36c-3.21-7.51-5-14.56-6.6-21.73l-.11-.51,97.98-18.68.04.57c.81,11.68.54,14.59-1.05,22.99l-.06.34L7.98,66.88Zm-5.66-21.81c1.53,6.83,3.19,13.56,6.18,20.68l88.62-17.11c1.52-8.03,1.76-10.82,1.02-21.83L2.31,45.07Z"/>
      </g>
      <g>
        <path class="cls-1" d="m27.42,57.74c-1.12.22-2.16.2-3.12-.06-.96-.26-1.77-.74-2.43-1.43-.66-.69-1.1-1.58-1.32-2.65-.22-1.09-.26-2.11-.12-3.07.14-.96.44-1.82.91-2.59.47-.77,1.1-1.41,1.9-1.93.8-.52,1.74-.89,2.84-1.1,1.01-.2,1.93-.21,2.76-.03.84.18,1.56.53,2.18,1.06.62.53,1.08,1.22,1.4,2.09l-3.58,1.47c-.15-.68-.4-1.16-.77-1.44-.36-.28-.85-.36-1.48-.24-.52.1-.95.34-1.27.71-.32.37-.57.81-.73,1.32-.16.51-.25,1.04-.26,1.59,0,.55.04,1.07.13,1.55.09.46.25.84.49,1.14.23.3.52.51.87.64.35.12.76.14,1.23.05.59-.11,1.01-.37,1.28-.76.27-.39.46-.87.59-1.43l3.71.58c-.33,1.17-.92,2.15-1.76,2.94-.84.79-2,1.32-3.46,1.61Z"/>
        <path class="cls-1" d="m45.12,54.09l4.71-13.63,4.72-.92,3.72,11.99-3.69.72-.67-2.62-3.9.76-.86,2.92-4.03.79Zm5.7-6.41l2.5-.49-1.09-4.33-1.42,4.82Z"/>
        <path class="cls-1" d="m83.18,33.94l-.1,2.97-4.01.78-.35,9.83-3.9.76.35-9.83-4.03.79.12-2.97,11.93-2.33Z"/>
      </g>
    </g>
  </g>
</svg>