<?xml version="1.0" encoding="UTF-8"?>
<svg id="Capa_2" data-name="Capa 2" xmlns="http://www.w3.org/2000/svg" viewBox="0 0 930.01 1036.81">
  <defs>
    <style>
      .cls-1 {
        fill: #df0e0d;
      }

      .cls-1, .cls-2 {
        stroke-width: 0px;
      }

      .cls-3 {
        stroke: #df0e0d;
        stroke-width: 15px;
      }

      .cls-3, .cls-4 {
        fill: #fff;
        stroke-miterlimit: 10;
      }

      .cls-2 {
        fill: #e30304;
      }

      .cls-4 {
        stroke: #e22222;
        stroke-width: 9.52px;
      }
    </style>
  </defs>
  <g id="Logo">
    <g>
      <path class="cls-3" d="m905.05,472.3c-83.92,353.59-412.96,542.61-438.64,556.7-.83.45-1.84.41-2.62-.09C-28.41,713.06.41,337.19,12.54,238.99c.15-1.18,4.68-1.37,5.99-1.26,139.1,12.13,255.42-48.95,286.29-67.7,39.22-23.83,134.1-100.95,158.19-161.26.68-1.7,3.53-1.71,4.27,0,22.44,51.7,101.54,121.44,138.04,145.99,30.63,20.56,154.59,84.95,308.25,81.79,1.31-.03,2.2,1.53,2.39,2.71,12.18,81.94,6.71,158.79-10.91,233.03Z"/>
      <path class="cls-1" d="m307.95,167.73v753.23c-38.49-32.88-72.17-66.08-101.69-99.27V214.15c36.11-11.75,70.19-27.41,101.69-46.42Z"/>
      <path class="cls-2" d="m514.67,71.98v927.45c-14.96,9.2-29.47,17.5-43.44,24.82-.85.45-1.9.4-2.69-.09-19.55-11.71-38.3-23.56-56.26-35.45V87.64c21.2-22.84,39.8-47.66,55.46-74.14.95-1.57,3.39-1.57,4.39,0,12.42,20.55,26.68,40.12,42.54,58.47Z"/>
      <path class="cls-1" d="m715.87,208.32v617.89c-33.19,35.15-67.77,66.88-102.15,94.75V158.28c31.4,20.18,65.68,37.06,102.15,50.04Z"/>
      <path class="cls-1" d="m919.55,236.49l-8.79,227.09c-18.76,81.01-52.44,156.4-94.23,224.2V230.3c22.34,3.38,45.28,5.09,68.63,5.09,8.58,0,25.91,1.59,34.39,1.11Z"/>
      <path class="cls-1" d="m104.57,238.55v440.5C24,541.15,6.17,413.52,6.17,327.63c0-36.8,3.36-65.66,6.38-84.64.14-1.17,1.65-1.93,2.94-1.84,10.69.72,70.3-.4,89.09-2.6Z"/>
      <path class="cls-4" d="m907.29,462.51L76.16,625.17c-29.89-71-45.65-137.62-60.32-204.08l901.19-174.09c7.44,108.99,5.27,135.48-9.74,215.5Z"/>
      <g>
        <path class="cls-1" d="m255.11,544.28c-10.43,2.06-20.1,1.86-29.03-.61-8.92-2.47-16.46-6.97-22.62-13.5-6.16-6.53-10.24-14.86-12.24-24.99-2.03-10.25-2.4-19.89-1.11-28.92,1.29-9.03,4.11-17.16,8.47-24.37,4.36-7.22,10.24-13.28,17.64-18.2,7.4-4.91,16.19-8.38,26.39-10.4,9.36-1.85,17.93-1.94,25.71-.28,7.78,1.67,14.53,4.99,20.26,9.97,5.72,4.98,10.07,11.53,13.03,19.66l-33.27,13.85c-1.39-6.38-3.76-10.9-7.12-13.57-3.36-2.66-7.94-3.42-13.75-2.27-4.86.96-8.79,3.19-11.79,6.69-3,3.5-5.26,7.64-6.78,12.42-1.52,4.78-2.31,9.78-2.39,15-.07,5.22.34,10.1,1.24,14.64.85,4.31,2.36,7.88,4.52,10.72,2.16,2.84,4.87,4.85,8.12,6.02,3.25,1.17,7.06,1.33,11.45.46,5.45-1.08,9.41-3.46,11.88-7.16,2.47-3.69,4.29-8.2,5.45-13.52l34.52,5.51c-3.11,11.03-8.58,20.25-16.41,27.67-7.83,7.42-18.56,12.48-32.18,15.18Z"/>
        <path class="cls-1" d="m419.7,509.89l43.82-128.5,43.9-8.69,34.56,112.99-34.3,6.79-6.19-24.74-36.26,7.18-8.03,27.55-37.5,7.42Zm53.05-60.43l23.28-4.61-10.12-40.85-13.17,45.45Z"/>
        <path class="cls-1" d="m773.69,319.98l-.93,27.96-37.32,7.39-3.26,92.7-36.26,7.18,3.26-92.7-37.5,7.42,1.11-28,110.91-21.95Z"/>
      </g>
    </g>
  </g>
</svg>